<?xml version="1.0" encoding="utf-8"?>
<!-- Generator: Adobe Illustrator 18.0.0, SVG Export Plug-In . SVG Version: 6.00 Build 0)  -->
<!DOCTYPE svg PUBLIC "-//W3C//DTD SVG 1.1//EN" "http://www.w3.org/Graphics/SVG/1.1/DTD/svg11.dtd">
<svg version="1.1" id="Layer_1" xmlns="http://www.w3.org/2000/svg" xmlns:xlink="http://www.w3.org/1999/xlink" x="0px" y="0px"
	 viewBox="0 0 128 128" style="enable-background:new 0 0 128 128;" xml:space="preserve">
<g>
	<circle style="fill:#F6A21A;" cx="64" cy="64" r="64"/>
	<path style="fill:#FFFFFF;" d="M85.74,42.34H42.26c-1.33,0-2.42,1.09-2.42,2.42v31.4c0,1.33,1.09,2.42,2.42,2.42h8.78l0.02,7.09
		l12.21-7.09h22.46c1.33,0,2.42-1.09,2.42-2.42v-31.4C88.15,43.43,87.06,42.34,85.74,42.34z M53.13,64.21
		c-1.67,0-3.02-1.35-3.02-3.02c0-1.67,1.35-3.02,3.02-3.02s3.02,1.35,3.02,3.02C56.15,62.86,54.8,64.21,53.13,64.21z M64,64.21
		c-1.67,0-3.02-1.35-3.02-3.02c0-1.67,1.35-3.02,3.02-3.02c1.67,0,3.02,1.35,3.02,3.02C67.02,62.86,65.67,64.21,64,64.21z
		 M74.87,64.21c-1.67,0-3.02-1.35-3.02-3.02c0-1.67,1.35-3.02,3.02-3.02c1.67,0,3.02,1.35,3.02,3.02
		C77.89,62.86,76.54,64.21,74.87,64.21z"/>
</g>
</svg>
