<svg xmlns="http://www.w3.org/2000/svg" xmlns:xlink="http://www.w3.org/1999/xlink" width="796.803" height="712.644" viewBox="0 0 796.803 712.644"><defs><style>.a{fill:#e9e8e8;}.b{fill:#c3c6cb;}.c{fill:#dbdddd;}.d{fill:#afb2b5;}.e{fill:#fdc010;}.f{fill:#fbaa19;}.g{fill:#ffd446;}.h{fill:#6b462c;}.i{fill:#80573a;}.j{fill:#553723;}.k{fill:#c72c27;}.l{fill:#af1f24;}.m{fill:#e93630;}.n{filter:url(#am);}.o{filter:url(#ak);}.p{filter:url(#ai);}.q{filter:url(#ag);}.r{filter:url(#ae);}.s{filter:url(#ac);}.t{filter:url(#aa);}.u{filter:url(#y);}.v{filter:url(#w);}.w{filter:url(#u);}.x{filter:url(#s);}.y{filter:url(#q);}.z{filter:url(#o);}.aa{filter:url(#m);}.ab{filter:url(#k);}.ac{filter:url(#i);}.ad{filter:url(#g);}.ae{filter:url(#e);}.af{filter:url(#c);}.ag{filter:url(#a);}</style><filter id="a" x="114.168" y="0.022" width="151.665" height="213.313" filterUnits="userSpaceOnUse"><feOffset dy="3" input="SourceAlpha"/><feGaussianBlur stdDeviation="3" result="b"/><feFlood flood-opacity="0.161"/><feComposite operator="in" in2="b"/><feComposite in="SourceGraphic"/></filter><filter id="c" x="227" y="0" width="100.238" height="175.039" filterUnits="userSpaceOnUse"><feOffset dy="3" input="SourceAlpha"/><feGaussianBlur stdDeviation="3" result="d"/><feFlood flood-opacity="0.161"/><feComposite operator="in" in2="d"/><feComposite in="SourceGraphic"/></filter><filter id="e" x="220.578" y="0.068" width="93.599" height="179.259" filterUnits="userSpaceOnUse"><feOffset dy="3" input="SourceAlpha"/><feGaussianBlur stdDeviation="3" result="f"/><feFlood flood-opacity="0.161"/><feComposite operator="in" in2="f"/><feComposite in="SourceGraphic"/></filter><filter id="g" x="139.022" y="210.05" width="518.782" height="49.261" filterUnits="userSpaceOnUse"><feOffset dy="3" input="SourceAlpha"/><feGaussianBlur stdDeviation="3" result="h"/><feFlood flood-opacity="0.161"/><feComposite operator="in" in2="h"/><feComposite in="SourceGraphic"/></filter><filter id="i" x="215.752" y="93.133" width="163.229" height="306.608" filterUnits="userSpaceOnUse"><feOffset dy="3" input="SourceAlpha"/><feGaussianBlur stdDeviation="3" result="j"/><feFlood flood-opacity="0.161"/><feComposite operator="in" in2="j"/><feComposite in="SourceGraphic"/></filter><filter id="k" x="14.183" y="75.718" width="288.404" height="117.966" filterUnits="userSpaceOnUse"><feOffset dy="3" input="SourceAlpha"/><feGaussianBlur stdDeviation="3" result="l"/><feFlood flood-opacity="0.161"/><feComposite operator="in" in2="l"/><feComposite in="SourceGraphic"/></filter><filter id="m" x="30.992" y="127.118" width="290.861" height="125.087" filterUnits="userSpaceOnUse"><feOffset dy="3" input="SourceAlpha"/><feGaussianBlur stdDeviation="3" result="n"/><feFlood flood-opacity="0.161"/><feComposite operator="in" in2="n"/><feComposite in="SourceGraphic"/></filter><filter id="o" x="38.606" y="126.805" width="276.144" height="128.368" filterUnits="userSpaceOnUse"><feOffset dy="3" input="SourceAlpha"/><feGaussianBlur stdDeviation="3" result="p"/><feFlood flood-opacity="0.161"/><feComposite operator="in" in2="p"/><feComposite in="SourceGraphic"/></filter><filter id="q" x="341.244" y="661.664" width="63.395" height="36.719" filterUnits="userSpaceOnUse"><feOffset dy="3" input="SourceAlpha"/><feGaussianBlur stdDeviation="3" result="r"/><feFlood flood-opacity="0.161"/><feComposite operator="in" in2="r"/><feComposite in="SourceGraphic"/></filter><filter id="s" x="336.936" y="655.751" width="24.087" height="32.821" filterUnits="userSpaceOnUse"><feOffset dy="3" input="SourceAlpha"/><feGaussianBlur stdDeviation="3" result="t"/><feFlood flood-opacity="0.161"/><feComposite operator="in" in2="t"/><feComposite in="SourceGraphic"/></filter><filter id="u" x="422.695" y="684.751" width="51.115" height="23.672" filterUnits="userSpaceOnUse"><feOffset dy="3" input="SourceAlpha"/><feGaussianBlur stdDeviation="3" result="v"/><feFlood flood-opacity="0.161"/><feComposite operator="in" in2="v"/><feComposite in="SourceGraphic"/></filter><filter id="w" x="455.227" y="683.521" width="21.397" height="29.123" filterUnits="userSpaceOnUse"><feOffset dy="3" input="SourceAlpha"/><feGaussianBlur stdDeviation="3" result="x"/><feFlood flood-opacity="0.161"/><feComposite operator="in" in2="x"/><feComposite in="SourceGraphic"/></filter><filter id="y" x="160.212" y="371.134" width="476.378" height="233.144" filterUnits="userSpaceOnUse"><feOffset dy="3" input="SourceAlpha"/><feGaussianBlur stdDeviation="3" result="z"/><feFlood flood-opacity="0.161"/><feComposite operator="in" in2="z"/><feComposite in="SourceGraphic"/></filter><filter id="aa" x="160.212" y="197.612" width="28.607" height="406.666" filterUnits="userSpaceOnUse"><feOffset dy="3" input="SourceAlpha"/><feGaussianBlur stdDeviation="3" result="ab"/><feFlood flood-opacity="0.161"/><feComposite operator="in" in2="ab"/><feComposite in="SourceGraphic"/></filter><filter id="ac" x="608.006" y="197.612" width="28.606" height="406.666" filterUnits="userSpaceOnUse"><feOffset dy="3" input="SourceAlpha"/><feGaussianBlur stdDeviation="3" result="ad"/><feFlood flood-opacity="0.161"/><feComposite operator="in" in2="ad"/><feComposite in="SourceGraphic"/></filter><filter id="ae" x="620.629" y="351.35" width="82.303" height="108.474" filterUnits="userSpaceOnUse"><feOffset dy="3" input="SourceAlpha"/><feGaussianBlur stdDeviation="3" result="af"/><feFlood flood-opacity="0.161"/><feComposite operator="in" in2="af"/><feComposite in="SourceGraphic"/></filter><filter id="ag" x="606.608" y="86.733" width="180.491" height="168.491" filterUnits="userSpaceOnUse"><feOffset dx="3" dy="3" input="SourceAlpha"/><feGaussianBlur stdDeviation="3" result="ah"/><feFlood flood-opacity="0.161"/><feComposite operator="in" in2="ah"/><feComposite in="SourceGraphic"/></filter><filter id="ai" x="644.5" y="118.968" width="131.434" height="309.052" filterUnits="userSpaceOnUse"><feOffset dy="3" input="SourceAlpha"/><feGaussianBlur stdDeviation="3" result="aj"/><feFlood flood-opacity="0.161"/><feComposite operator="in" in2="aj"/><feComposite in="SourceGraphic"/></filter><filter id="ak" x="382.809" y="91.902" width="395.693" height="179.712" filterUnits="userSpaceOnUse"><feOffset dx="3" dy="3" input="SourceAlpha"/><feGaussianBlur stdDeviation="3" result="al"/><feFlood flood-opacity="0.161"/><feComposite operator="in" in2="al"/><feComposite in="SourceGraphic"/></filter><filter id="am" x="379.824" y="152.462" width="344.611" height="275.572" filterUnits="userSpaceOnUse"><feOffset dy="3" input="SourceAlpha"/><feGaussianBlur stdDeviation="3" result="an"/><feFlood flood-opacity="0.161"/><feComposite operator="in" in2="an"/><feComposite in="SourceGraphic"/></filter></defs><g transform="translate(-297.89 -118.401)"><ellipse class="a" cx="398.401" cy="31.819" rx="398.401" ry="31.819" transform="translate(297.89 678.882)"/><ellipse class="a" cx="29.921" cy="2.724" rx="29.921" ry="2.724" transform="translate(717.973 811.832)"/><path class="a" d="M555.966,415.856c.759,2.412-13.152,8.909-31.083,14.536s-33.07,8.24-33.807,5.85c-.759-2.412,13.152-8.909,31.083-14.536C540.067,416.057,555.206,413.444,555.966,415.856Z" transform="translate(238.151 358.239)"/><path class="a" d="M507.6,434.9c-.737,4.466-13.867,6.007-29.318,3.439-15.43-2.568-27.354-8.284-26.594-12.772.737-4.466,13.867-6.007,29.318-3.439C496.437,424.716,508.339,430.433,507.6,434.9Z" transform="translate(189.583 365.545)"/><ellipse class="a" cx="23.736" cy="4.801" rx="23.736" ry="4.801" transform="matrix(0.866, -0.5, 0.5, 0.866, 594.801, 814.576)"/><path class="a" d="M465.283,423.7c0,2.032-13.4,5.94-29.921,8.753s-29.921,3.461-29.921,1.429,13.4-5.94,29.921-8.753C451.885,422.334,465.283,421.686,465.283,423.7Z" transform="translate(132.603 367.57)"/><ellipse class="a" cx="11.879" cy="92.154" rx="11.879" ry="92.154" transform="translate(781.888 776.262) rotate(-85.584)"/><ellipse class="a" cx="130.895" cy="11.924" rx="130.895" ry="11.924" transform="translate(602.597 741.807)"/><ellipse class="a" cx="11.902" cy="131.185" rx="11.902" ry="131.185" transform="translate(367.686 763.995) rotate(-86.221)"/><g transform="translate(421.058 124.401)"><path class="b" d="M496.321,185.81,388.715,235.225,384.83,258.18a1.444,1.444,0,0,0,1.206.648l12.705,5.761a1.253,1.253,0,0,1,.268,2.121l-5.314,4.31,13.442,5.806a1.247,1.247,0,0,1,.29,2.121l-5.27,4.287,13.442,5.806a1.247,1.247,0,0,1,.29,2.121l-5.27,4.287,13.442,5.806a1.247,1.247,0,0,1,.29,2.121l-5.27,4.287,13.442,5.806a1.247,1.247,0,0,1,.29,2.121l-5.27,4.287,13.442,5.806a1.247,1.247,0,0,1,.29,2.121l-5.27,4.287,13.442,5.806a1.247,1.247,0,0,1,.29,2.121l-5.27,4.287,13.442,5.806a1.247,1.247,0,0,1,.29,2.121l-5.27,4.287,13.442,5.806a1.247,1.247,0,0,1,.29,2.121l-5.27,4.287,13.442,5.806a1.247,1.247,0,0,1,.29,2.121l-5.27,4.287,13.442,5.806a1.247,1.247,0,0,1,.29,2.121l-5.27,4.287,13.442,5.806a1.247,1.247,0,0,1,.29,2.121l-5.27,4.287,13.442,5.806a1.247,1.247,0,0,1,.29,2.121l-5.27,4.287,13.442,5.806a1.247,1.247,0,0,1,.29,2.121l-5.27,4.287,13.442,5.806a1.247,1.247,0,0,1,.29,2.121l-5.27,4.287,13.442,5.806a1.247,1.247,0,0,1,.29,2.121l-5.27,4.287,13.442,5.806a1.247,1.247,0,0,1,.29,2.121l-5.27,4.287,13.442,5.806a1.247,1.247,0,0,1,.29,2.121l-5.27,4.287,13.442,5.806a1.247,1.247,0,0,1,.29,2.121l-5.27,4.287,13.442,5.806a1.247,1.247,0,0,1,.29,2.121l-5.27,4.287,13.442,5.806a1.247,1.247,0,0,1,.29,2.121l-5.27,4.287,13.442,5.806a1.247,1.247,0,0,1,.29,2.121l-5.27,4.287,13.442,5.806a1.247,1.247,0,0,1,.29,2.121l-5.27,4.287,13.442,5.806a1.247,1.247,0,0,1,.29,2.121l-5.27,4.287,13.442,5.806a1.247,1.247,0,0,1,.29,2.121l-5.27,4.287,13.442,5.806a1.247,1.247,0,0,1,.29,2.121l-5.27,4.287,13.442,5.806A1.247,1.247,0,0,1,619,584.3l-5.27,4.287,13.442,5.806a1.247,1.247,0,0,1,.29,2.121l-5.27,4.287,13.442,5.806a1.247,1.247,0,0,1,.29,2.121l-5.27,4.287,13.442,5.806a1.247,1.247,0,0,1,.29,2.121l-5.27,4.287,2.188,3.171,35.437-16.278a14.2,14.2,0,0,0,6.989-18.846ZM661.536,587.4a7.139,7.139,0,1,1-3.506,9.468A7.147,7.147,0,0,1,661.536,587.4Z" transform="translate(-313.866 -48.688)"/><g transform="translate(174.126 137.122)"><path class="c" d="M626.524,593.344a14.189,14.189,0,0,1-6.989,18.846l-8.329,3.818a14.2,14.2,0,0,0,6.989-18.846L431.03,189.628l8.329-3.818Z" transform="translate(-431.03 -185.81)"/></g><g transform="translate(70.718 177.246)"><path class="d" d="M661.583,596.957,641.2,606.313l-2.188-3.171,5.27-4.287a1.245,1.245,0,0,0-.29-2.121l-13.442-5.806,5.27-4.287a1.245,1.245,0,0,0-.29-2.121l-13.442-5.806,5.27-4.287a1.245,1.245,0,0,0-.29-2.121L613.619,566.5l5.27-4.287a1.245,1.245,0,0,0-.29-2.121l-13.442-5.806,5.27-4.287a1.245,1.245,0,0,0-.29-2.121l-13.442-5.806,5.27-4.287a1.245,1.245,0,0,0-.29-2.121l-13.442-5.806,5.27-4.287a1.245,1.245,0,0,0-.29-2.121l-13.442-5.806,5.27-4.287a1.245,1.245,0,0,0-.29-2.121L571.3,505.428l5.27-4.287a1.245,1.245,0,0,0-.29-2.121l-13.442-5.806,5.27-4.287a1.244,1.244,0,0,0-.29-2.121L554.379,481l5.27-4.287a1.245,1.245,0,0,0-.29-2.121l-13.442-5.806,5.27-4.287a1.245,1.245,0,0,0-.29-2.121l-13.442-5.806,5.27-4.287a1.245,1.245,0,0,0-.29-2.121l-13.442-5.806,5.27-4.287a1.245,1.245,0,0,0-.29-2.121l-13.442-5.806,5.27-4.287a1.245,1.245,0,0,0-.29-2.121l-13.442-5.806,5.27-4.287a1.245,1.245,0,0,0-.29-2.121L503.6,407.714l5.27-4.287a1.245,1.245,0,0,0-.29-2.121L495.139,395.5l5.27-4.287a1.245,1.245,0,0,0-.29-2.121l-13.442-5.806,5.27-4.287a1.245,1.245,0,0,0-.29-2.121l-13.442-5.806,5.27-4.287a1.245,1.245,0,0,0-.29-2.121l-13.442-5.806,5.27-4.287a1.245,1.245,0,0,0-.29-2.121l-13.442-5.806,5.27-4.287a1.245,1.245,0,0,0-.29-2.121l-13.442-5.806,5.27-4.287a1.245,1.245,0,0,0-.29-2.121l-13.442-5.806,5.27-4.287a1.245,1.245,0,0,0-.29-2.121L435.9,310l5.27-4.287a1.244,1.244,0,0,0-.29-2.121l-13.442-5.806,5.27-4.287a1.245,1.245,0,0,0-.29-2.121l-13.442-5.806,5.27-4.287a1.244,1.244,0,0,0-.29-2.121l-13.442-5.806,5.27-4.287a1.245,1.245,0,0,0-.29-2.121l-13.442-5.806,5.27-4.287a1.245,1.245,0,0,0-.29-2.121l-13.442-5.806,5.314-4.31a1.262,1.262,0,0,0-.268-2.121l-12.705-5.761a1.564,1.564,0,0,1-1.206-.648l3.885-22.955,20.387-9.356Z" transform="translate(-384.72 -203.779)"/></g><path class="d" d="M388.133,235.225,495.739,185.81l12.237,26.661a11.722,11.722,0,0,1-3.952,2.166l-118.7,37.29Z" transform="translate(-313.262 -48.688)"/><path class="e" d="M460.659,160.47l-99.991,28.492a10.483,10.483,0,0,0-6.654,14.425l50.174,109.258a12.14,12.14,0,0,0,14.67,6.52l120.757-37.938a12.143,12.143,0,0,0,7.391-16.635l-60.58-131.9a14.212,14.212,0,0,0-20.074-6.342c-6.409,3.729-8.574,12.013-5.493,18.757l3.439,7.48A5.753,5.753,0,0,1,460.659,160.47Zm-61.9,45.976,71.878-20.588a9.557,9.557,0,0,1,11.3,5.18l15.452,33.673a9.545,9.545,0,0,1-5.962,13.13l-71.61,21.191a9.521,9.521,0,0,1-11.366-5.158l-15.742-34.253A9.554,9.554,0,0,1,398.762,206.446Z" transform="translate(-353.03 -124.389)"/><g transform="translate(55.423 100.323)"><path class="f" d="M466.808,169.33l4.823,10.517a9.545,9.545,0,0,1-5.962,13.13l-71.61,21.191a9.521,9.521,0,0,1-11.366-5.158l-4.823-10.517a9.519,9.519,0,0,0,11.366,5.158l71.61-21.191A9.53,9.53,0,0,0,466.808,169.33Z" transform="translate(-377.87 -169.33)"/></g><g transform="translate(0 0.022)"><g class="ag" transform="matrix(1, 0, 0, 1, -123.17, -6.02)"><path class="f" d="M464.3,152.588l-3.439-7.48c-3.1-6.743-.938-15.028,5.493-18.757a14.207,14.207,0,0,1,20.074,6.342l.29.648a16.051,16.051,0,0,0-2.635,1.161c-6.409,3.729-8.575,12.013-5.493,18.757l3.439,7.48a5.714,5.714,0,0,1-3.617,7.882l-99.991,28.492a10.468,10.468,0,0,0-6.654,14.425l49.125,106.98-2.032.648a12.15,12.15,0,0,1-14.67-6.52L354.011,203.387a10.448,10.448,0,0,1,6.654-14.425l99.991-28.492A5.724,5.724,0,0,0,464.3,152.588Z" transform="translate(-229.88 -118.39)"/></g></g><g transform="translate(36.775 56.702)"><path class="g" d="M372.424,188.3l-2.032-4.4a9.538,9.538,0,0,1,6.051-13.152l71.878-20.588a9.557,9.557,0,0,1,11.3,5.18l2.032,4.4a9.533,9.533,0,0,0-11.3-5.18L378.475,175.15A9.538,9.538,0,0,0,372.424,188.3Z" transform="translate(-369.519 -149.795)"/><g transform="translate(12.35 79.102)"><path class="g" d="M389.72,239.793l120.758-37.938a12.143,12.143,0,0,0,7.391-16.635l2.032,4.4a12.128,12.128,0,0,1-7.391,16.635L391.752,244.192a12.15,12.15,0,0,1-14.67-6.52l-2.032-4.4A12.14,12.14,0,0,0,389.72,239.793Z" transform="translate(-375.05 -185.22)"/></g></g><path class="h" d="M427.669,132.692l60.58,131.9a12.128,12.128,0,0,1-7.391,16.635l-14.2,4.466-28-60.982L423.2,191.039l-17.663-38.451-3.439-7.48c-3.1-6.743-.938-15.028,5.493-18.757A14.207,14.207,0,0,1,427.669,132.692Z" transform="translate(-294.295 -124.389)"/><g class="af" transform="matrix(1, 0, 0, 1, -123.17, -6)"><path class="i" d="M476.664,281.441a12.1,12.1,0,0,0,4.4-15.184l-60.58-131.9a14.192,14.192,0,0,0-16.9-7.681,3.562,3.562,0,0,1,.469-.335,14.207,14.207,0,0,1,20.074,6.342l60.58,131.9a12.128,12.128,0,0,1-7.391,16.635Z" transform="translate(-167.58 -118.4)"/></g><g class="ae" transform="matrix(1, 0, 0, 1, -123.17, -6)"><path class="j" d="M416.616,124.562a14.7,14.7,0,0,0-4.6,18.109l3.439,7.48L433.117,188.6l15.452,33.673L476.3,282.654l-9.646,3.037-28-60.982L423.2,191.036l-17.663-38.451L402.1,145.1c-3.1-6.743-.938-15.028,5.493-18.757A14.071,14.071,0,0,1,416.616,124.562Z" transform="translate(-171.13 -118.36)"/></g><g transform="translate(93.893 157.599)"><circle class="f" cx="7.168" cy="7.168" r="7.168" transform="translate(0 6.938) rotate(-28.946)"/><path class="b" d="M399.723,196.833a6.435,6.435,0,1,0,8.53,3.171A6.43,6.43,0,0,0,399.723,196.833Z" transform="translate(-394.026 -193.418)"/><path class="c" d="M404.971,196.8a6.51,6.51,0,0,0-4.578.268,6.407,6.407,0,0,0,.112,11.723,6.329,6.329,0,0,1-3.952-3.439,6.43,6.43,0,0,1,3.171-8.53A6.5,6.5,0,0,1,404.971,196.8Z" transform="translate(-394.026 -193.407)"/><path class="d" d="M400.8,207.5a6.43,6.43,0,0,0,3.171-8.53,6.2,6.2,0,0,0-2.322-2.68,6.427,6.427,0,1,1-4.354,11.745A6.667,6.667,0,0,0,400.8,207.5Z" transform="translate(-392.396 -193.367)"/></g><g transform="translate(131.785 147.986)"><path class="f" d="M416.519,191.333a7.174,7.174,0,1,0,9.512,3.528A7.181,7.181,0,0,0,416.519,191.333Z" transform="translate(-411.737 -190.675)"/><path class="b" d="M415.823,191.378a6.435,6.435,0,1,0,8.53,3.171A6.43,6.43,0,0,0,415.823,191.378Z" transform="translate(-412.068 -190.541)"/><path class="c" d="M421.071,191.329a6.51,6.51,0,0,0-4.578.268,6.407,6.407,0,0,0,.112,11.723,6.329,6.329,0,0,1-3.952-3.439,6.43,6.43,0,0,1,3.171-8.53A6.5,6.5,0,0,1,421.071,191.329Z" transform="translate(-412.068 -190.537)"/><path class="d" d="M416.886,202.029a6.43,6.43,0,0,0,3.171-8.53,6.2,6.2,0,0,0-2.322-2.68,6.427,6.427,0,1,1-4.354,11.745A6.634,6.634,0,0,0,416.886,202.029Z" transform="translate(-410.451 -190.497)"/></g><g transform="translate(92.534 202.717)"><path class="d" d="M453.17,319.766l7.547,3.26q-.871-4.153-1.876-8.307a1.162,1.162,0,0,1-.4.759Z" transform="translate(-322.141 -92.467)"/><path class="d" d="M457.742,322.17l-.782.625.96.424C457.853,322.862,457.808,322.527,457.742,322.17Z" transform="translate(-317.468 -83.281)"/><path class="d" d="M508.147,256.058a16.125,16.125,0,0,1,.916-1.742,18.018,18.018,0,0,1,5.783-5.672c.6-.38,1.228-.759,1.9-1.116a33.1,33.1,0,0,1,4.22-1.9c.737-.29,1.518-.558,2.3-.8,1.407-.447,2.88-.826,4.354-1.183l-12.594-27.4a323.872,323.872,0,0,0-37.156-.871h-.223l-34.03.558a1.9,1.9,0,0,0-1.474.692,2,2,0,0,0-.469,1.563l.447,3.394a24.193,24.193,0,0,1-18.4,2.367l-.29-2.255a3.4,3.4,0,0,0-3.774-2.925l-25.165,3.26.692,5.381,2.97,23,5.56,2.389a1.247,1.247,0,0,1,.29,2.121l-4.756,3.863.089.67,12.839,5.538a1.247,1.247,0,0,1,.29,2.121L407.2,271.4l10.584,4.578,9.133-1.183a3.4,3.4,0,0,0,2.925-3.774l-.29-2.255h0a24.193,24.193,0,0,1,18.4-2.367h0l.112.849a4.97,4.97,0,0,0,.2.871,2.706,2.706,0,0,0,.2.447c.045.112.089.2.134.313a1.315,1.315,0,0,0,.089.179,4.786,4.786,0,0,0,3.8,2.367,4.6,4.6,0,0,0,.96-.022l17.395-2.255.268,2.01.447,3.372-1.987.246a3.756,3.756,0,0,0-3.238,4.22l.871,6.721a3.756,3.756,0,0,0,4.22,3.238l1.987-.246,1.943,17.8a303.4,303.4,0,0,0,7.547,40.93q1.708,6.732,3.617,13.42A154.926,154.926,0,0,1,490.373,378c.335,2.01.648,4.042.916,6.118.022.246.045.491.089.737L496.8,387.2a1.247,1.247,0,0,1,.29,2.121l-4.89,3.975c.022.156.022.335.045.491l13.018,5.627a1.247,1.247,0,0,1,.29,2.121l-5.27,4.287,13.442,5.806a1.247,1.247,0,0,1,.29,2.121l-5.27,4.287,13.442,5.806a1.247,1.247,0,0,1,.29,2.121l-5.27,4.287,13.442,5.806a1.535,1.535,0,0,1,.469.357c-2.077-8.619-4.488-17.149-7.391-25.522a150.648,150.648,0,0,1-6.342-25.992c-.2-1.34-.4-2.7-.581-4.086a160.065,160.065,0,0,1-1.317-18.02c-.022-1.92-.022-3.818.022-5.694.045-2.322.089-4.622.112-6.944s.022-4.622-.022-6.944q-.1-10.718-.893-21.392c-.491-6.721-1.228-13.442-2.211-20.119l-2.635-17.707,1.876-.246a3.756,3.756,0,0,0,3.238-4.22l-.424-3.349h0l-.424-3.349a3.756,3.756,0,0,0-4.22-3.238l-1.987.246-.447-3.372h0l-.268-2.01a18.145,18.145,0,0,1-.022-4.533A11.555,11.555,0,0,1,508.147,256.058Z" transform="translate(-394.49 -215.186)"/></g></g><g transform="translate(683.039 330.365)"><rect class="b" width="356.802" height="40.907" transform="translate(0 351.628) rotate(-80.23)"/><rect class="c" width="356.802" height="5.672" transform="translate(0.035 351.648) rotate(-80.23)"/><rect class="d" width="356.802" height="8.441" transform="translate(32.013 357.131) rotate(-80.23)"/><path class="e" d="M606.11,276.85,530.86,263.9,497.5,216.65l115.555,19.9a6.284,6.284,0,0,1,5.136,7.279l-4.8,27.867A6.272,6.272,0,0,1,606.11,276.85Z" transform="translate(-436.932 -216.628)"/><path class="g" d="M606.669,273.635l-75.25-12.951-30.7-43.475-3.215-.558L530.86,263.9l75.25,12.951a6.305,6.305,0,0,0,7.279-5.136l.558-3.215A6.273,6.273,0,0,1,606.669,273.635Z" transform="translate(-436.932 -216.628)"/><path class="f" d="M503.06,224.508l102.112,17.6a6.284,6.284,0,0,1,5.136,7.279L605.6,276.758l.514.089a6.305,6.305,0,0,0,7.279-5.136l4.8-27.867a6.305,6.305,0,0,0-5.136-7.279L497.5,216.67Z" transform="translate(-436.932 -216.603)"/><g transform="translate(88.213 26.614)"><path class="f" d="M515.172,228.647a4.521,4.521,0,1,1-5.225,3.684A4.526,4.526,0,0,1,515.172,228.647Z" transform="translate(-509.88 -228.532)"/><path class="b" d="M515.162,228.623a4.056,4.056,0,1,1-4.689,3.3A4.053,4.053,0,0,1,515.162,228.623Z" transform="translate(-509.223 -228.553)"/><path class="c" d="M511.11,229.455a4.034,4.034,0,0,1,4.645,6.587,4.052,4.052,0,0,0-1.451-7.436A4.119,4.119,0,0,0,511.11,229.455Z" transform="translate(-508.364 -228.559)"/><path class="d" d="M515.251,235.4a4.053,4.053,0,0,1-3.3-4.689,3.968,3.968,0,0,1,.983-2.01,4.054,4.054,0,1,0,4.555,6.453A3.956,3.956,0,0,1,515.251,235.4Z" transform="translate(-509.223 -228.385)"/></g><g transform="translate(78.745 10.737)"><path class="f" d="M510.932,221.537a4.521,4.521,0,1,1-5.225,3.684A4.526,4.526,0,0,1,510.932,221.537Z" transform="translate(-505.64 -221.422)"/><path class="b" d="M510.922,221.513a4.056,4.056,0,1,1-4.689,3.3A4.053,4.053,0,0,1,510.922,221.513Z" transform="translate(-504.983 -221.443)"/><path class="c" d="M506.87,222.345a4.034,4.034,0,0,1,4.644,6.587,4.052,4.052,0,0,0-1.451-7.436A4.118,4.118,0,0,0,506.87,222.345Z" transform="translate(-504.124 -221.449)"/><path class="d" d="M511.021,228.289a4.053,4.053,0,0,1-3.3-4.689,3.968,3.968,0,0,1,.982-2.01,4.054,4.054,0,1,0,4.555,6.453A4.186,4.186,0,0,1,511.021,228.289Z" transform="translate(-504.971 -221.275)"/></g><g transform="translate(1.548 15.459)"><rect class="d" width="3.037" height="14.358" transform="translate(0 327.156) rotate(-80.23)"/><rect class="d" width="3.037" height="9.713" transform="translate(1.006 321.363) rotate(-80.23)"/><rect class="d" width="3.037" height="9.713" transform="translate(1.988 315.564) rotate(-80.23)"/><rect class="d" width="3.037" height="9.713" transform="translate(2.999 309.802) rotate(-80.23)"/><rect class="d" width="3.037" height="14.358" transform="translate(3.974 304.001) rotate(-80.23)"/><rect class="d" width="3.037" height="9.713" transform="translate(5.006 298.211) rotate(-80.23)"/><rect class="d" width="3.037" height="9.713" transform="translate(5.972 292.422) rotate(-80.23)"/><rect class="d" width="3.037" height="9.713" transform="translate(6.976 286.626) rotate(-80.23)"/><rect class="d" width="3.037" height="14.358" transform="translate(7.963 280.837) rotate(-80.23)"/><rect class="d" width="3.037" height="9.713" transform="translate(8.991 275.069) rotate(-80.23)"/><rect class="d" width="3.037" height="9.713" transform="translate(9.973 269.269) rotate(-80.23)"/><rect class="d" width="3.037" height="9.713" transform="translate(10.961 263.484) rotate(-80.23)"/><rect class="d" width="3.037" height="14.358" transform="translate(11.956 257.677) rotate(-80.23)"/><rect class="d" width="3.037" height="9.713" transform="translate(12.973 251.897) rotate(-80.23)"/><rect class="d" width="3.037" height="9.713" transform="translate(13.954 246.123) rotate(-80.23)"/><rect class="d" width="3.037" height="9.713" transform="translate(14.962 240.331) rotate(-80.23)"/><rect class="d" width="3.037" height="14.358" transform="translate(15.948 234.542) rotate(-80.23)"/><rect class="d" width="3.037" height="9.713" transform="translate(16.954 228.751) rotate(-80.23)"/><rect class="d" width="3.037" height="9.713" transform="translate(17.935 222.951) rotate(-80.23)"/><rect class="d" width="3.037" height="9.713" transform="translate(18.951 217.167) rotate(-80.23)"/><rect class="d" width="3.037" height="14.358" transform="translate(19.937 211.378) rotate(-80.23)"/><rect class="d" width="3.037" height="9.713" transform="translate(20.954 205.598) rotate(-80.23)"/><rect class="d" width="3.037" height="9.713" transform="translate(21.924 199.787) rotate(-80.23)"/><rect class="d" width="3.037" height="9.713" transform="translate(22.924 194.014) rotate(-80.23)"/><rect class="d" width="3.037" height="14.358" transform="translate(23.933 188.229) rotate(-80.23)"/><rect class="d" width="3.037" height="9.713" transform="translate(24.943 182.433) rotate(-80.23)"/><rect class="d" width="3.037" height="9.713" transform="translate(25.921 176.656) rotate(-80.23)"/><rect class="d" width="3.037" height="9.713" transform="translate(26.908 170.846) rotate(-80.23)"/><rect class="d" width="3.037" height="14.358" transform="translate(27.921 165.065) rotate(-80.23)"/><rect class="d" width="3.037" height="9.713" transform="translate(28.924 159.287) rotate(-80.23)"/><rect class="d" width="3.037" height="9.713" transform="translate(29.91 153.491) rotate(-80.23)"/><rect class="d" width="3.037" height="9.713" transform="translate(30.91 147.718) rotate(-80.23)"/><rect class="d" width="3.037" height="14.358" transform="translate(31.919 141.933) rotate(-80.23)"/><rect class="d" width="3.037" height="9.713" transform="translate(32.905 136.116) rotate(-80.23)"/><rect class="d" width="3.037" height="9.713" transform="translate(33.883 130.339) rotate(-80.23)"/><rect class="d" width="3.037" height="9.713" transform="translate(34.899 124.554) rotate(-80.23)"/><rect class="d" width="3.037" height="14.358" transform="translate(35.908 118.768) rotate(-80.23)"/><rect class="d" width="3.037" height="9.713" transform="translate(36.89 112.974) rotate(-80.23)"/><rect class="d" width="3.037" height="9.713" transform="translate(37.872 107.175) rotate(-80.23)"/><rect class="d" width="3.037" height="9.713" transform="translate(38.876 101.379) rotate(-80.23)"/><rect class="d" width="3.037" height="14.358" transform="translate(39.889 95.598) rotate(-80.23)"/><rect class="d" width="3.037" height="9.713" transform="translate(40.891 89.82) rotate(-80.23)"/><rect class="d" width="3.037" height="9.713" transform="translate(41.856 84.007) rotate(-80.23)"/><rect class="d" width="3.037" height="9.713" transform="translate(42.866 78.241) rotate(-80.23)"/><rect class="d" width="3.037" height="14.358" transform="translate(43.869 72.452) rotate(-80.23)"/><rect class="d" width="3.037" height="9.713" transform="translate(44.877 66.678) rotate(-80.23)"/><rect class="d" width="3.037" height="9.713" transform="translate(45.858 60.878) rotate(-80.23)"/><rect class="d" width="3.037" height="9.713" transform="translate(46.862 55.082) rotate(-80.23)"/><rect class="d" width="3.037" height="14.358" transform="translate(47.87 49.297) rotate(-80.23)"/><rect class="d" width="3.037" height="9.713" transform="translate(48.853 43.504) rotate(-80.23)"/><rect class="d" width="3.037" height="9.713" transform="translate(49.847 37.714) rotate(-80.23)"/><rect class="d" width="3.037" height="9.713" transform="translate(50.847 31.94) rotate(-80.23)"/><rect class="d" width="3.037" height="14.358" transform="translate(51.856 26.155) rotate(-80.23)"/><rect class="d" width="3.037" height="9.713" transform="translate(52.842 20.34) rotate(-80.23)"/><rect class="d" width="3.037" height="9.713" transform="translate(53.82 14.563) rotate(-80.23)"/><rect class="d" width="3.037" height="9.713" transform="translate(54.824 8.767) rotate(-80.23)"/><rect class="d" width="3.037" height="14.358" transform="translate(55.848 2.993) rotate(-80.23)"/></g></g><g transform="translate(445.912 334.429)"><g class="ad" transform="matrix(1, 0, 0, 1, -148.02, -216.03)"><path class="k" d="M857.638,249.731H371.5a7.328,7.328,0,0,1-7.324-7.324V225.794a7.328,7.328,0,0,1,7.324-7.324H857.638a7.328,7.328,0,0,1,7.324,7.324v16.613A7.328,7.328,0,0,1,857.638,249.731Z" transform="translate(-216.16 -2.42)"/></g><g transform="translate(30.636)"><path class="l" d="M558.59,221.117v28.626h36.04V221.117a17.273,17.273,0,0,0-.268-2.657h-35.5A17.853,17.853,0,0,0,558.59,221.117Z" transform="translate(-155.12 -218.46)"/><path class="l" d="M377.9,221.117v28.626h36.04V221.117a17.281,17.281,0,0,0-.268-2.657h-35.5A17.861,17.861,0,0,0,377.9,221.117Z" transform="translate(-377.9 -218.46)"/></g><path class="l" d="M849.331,232.113H379.811a15.631,15.631,0,0,1-14.336-9.423,15.612,15.612,0,0,0,14.336,21.838H849.331a15.612,15.612,0,0,0,14.335-21.838A15.655,15.655,0,0,1,849.331,232.113Z" transform="translate(-364.18 -213.245)"/><path class="m" d="M379.811,224.822H849.331a15.6,15.6,0,0,1,15.3,12.46,14.989,14.989,0,0,0,.335-3.171,15.619,15.619,0,0,0-15.63-15.631H379.811a15.619,15.619,0,0,0-15.631,15.631,14.831,14.831,0,0,0,.335,3.171A15.6,15.6,0,0,1,379.811,224.822Z" transform="translate(-364.18 -218.435)"/><path class="l" d="M419,249.731h61.54c7.346-16.993,46.758-15.407,59.553-14.425a2.854,2.854,0,0,0,2.813-4c-2.411-5.515-7.882-9.691-15.05-12.839H414.98Z" transform="translate(-301.547 -218.448)"/><path class="l" d="M701.243,218.47H484.29c7.5,6.654,16.01,13.889,25.7,21.771,4.109,3.349,8.016,6.476,11.835,9.49H701.243a15.631,15.631,0,0,0,0-31.261Z" transform="translate(-216.091 -218.448)"/></g><g transform="translate(502.651 316.172)"><path class="d" d="M421.089,213.16h0a24.193,24.193,0,0,1-18.4,2.367h0l5.783,44.837h0a24.193,24.193,0,0,1,18.4-2.367h0Z" transform="translate(-373.438 -206.738)"/><path class="b" d="M402.69,215.527l.625,4.779a24.18,24.18,0,0,0,18.4-2.367l-.625-4.779A24.206,24.206,0,0,1,402.69,215.527Z" transform="translate(-373.438 -206.738)"/><path class="e" d="M468.932,352.212a159.222,159.222,0,0,1-1.317-23.714,325.451,325.451,0,0,0-3.014-55.377l-4.064-27.354c-1.362-9.222-9.244-16.524-18.556-16.233a18.166,18.166,0,0,0-17.551,20.119l3.1,28.269A322.237,322.237,0,0,0,438.7,332.25a159.18,159.18,0,0,1,4.756,23.267,153.614,153.614,0,0,1,.96,30.859,314.264,314.264,0,0,0,1.407,58.324l12.1,110.464A18.173,18.173,0,0,0,478.289,571.2l11.7-1.518A18.159,18.159,0,0,0,505.62,549L489.275,439.074a312.807,312.807,0,0,0-13.442-56.761A154.974,154.974,0,0,1,468.932,352.212Z" transform="translate(-346.768 -186.559)"/><path class="f" d="M477.413,438.862A312.813,312.813,0,0,0,463.971,382.1a151.187,151.187,0,0,1-6.9-30.078,159.222,159.222,0,0,1-1.317-23.714,325.445,325.445,0,0,0-3.014-55.377l-4.064-27.354a18.971,18.971,0,0,0-14.715-15.9,19.421,19.421,0,0,1,1.987,6.074l4.064,27.354a325.7,325.7,0,0,1,3.014,55.377,156.287,156.287,0,0,0,1.317,23.714,151.186,151.186,0,0,0,6.9,30.078,312.806,312.806,0,0,1,13.442,56.761L481.03,538.965A18.171,18.171,0,0,1,465.4,559.642l-11.7,1.518a17.622,17.622,0,0,1-5.85-.29,18.072,18.072,0,0,0,18.578,10.093l11.7-1.518a18.159,18.159,0,0,0,15.631-20.677Z" transform="translate(-334.884 -186.37)"/><path class="g" d="M464.276,559.832l-12.1-110.464a314.276,314.276,0,0,1-1.407-58.324,151.984,151.984,0,0,0-.96-30.859,159.174,159.174,0,0,0-4.756-23.267,327.165,327.165,0,0,1-11.165-54.327l-3.1-28.269A18.153,18.153,0,0,1,448.332,234.2a16.9,16.9,0,0,1,7.48,1.541,17.668,17.668,0,0,0-13.822-6.208,18.166,18.166,0,0,0-17.551,20.119l3.1,28.269a322.237,322.237,0,0,0,11.165,54.328,159.18,159.18,0,0,1,4.756,23.267,153.614,153.614,0,0,1,.96,30.859,314.269,314.269,0,0,0,1.407,58.324l12.1,110.464a18.115,18.115,0,0,0,10.606,14.514A18.276,18.276,0,0,1,464.276,559.832Z" transform="translate(-346.756 -186.56)"/><path class="h" d="M442.253,404.78a18.173,18.173,0,0,0,20.364,16.033l11.7-1.518a18.159,18.159,0,0,0,15.631-20.677l-7.012-47.137L437.05,357.4Z" transform="translate(-331.075 -36.197)"/><path class="j" d="M479.078,351.48l-11.053,1.429,5.337,35.883a18.171,18.171,0,0,1-15.631,20.677l-11.7,1.518a17.622,17.622,0,0,1-5.85-.29,18.072,18.072,0,0,0,18.578,10.093l11.7-1.518A18.159,18.159,0,0,0,486.089,398.6Z" transform="translate(-327.215 -36.197)"/><path class="i" d="M448.607,409.47l-5.2-47.383,40.327-5.2-.8-5.4L437.04,357.4l5.2,47.383a18.115,18.115,0,0,0,10.606,14.514A18.273,18.273,0,0,1,448.607,409.47Z" transform="translate(-331.087 -36.197)"/><path class="b" d="M421.655,267.994l-24.83,3.215-7.235-56.047,24.83-3.215a3.738,3.738,0,0,1,4.176,3.215l6.275,48.656A3.738,3.738,0,0,1,421.655,267.994Z" transform="translate(-389.59 -208.272)"/><path class="c" d="M411.741,212.109l-22.151,2.858.692,5.381,22.151-2.858a6.418,6.418,0,0,1,7.19,5.538l-.692-5.381A6.43,6.43,0,0,0,411.741,212.109Z" transform="translate(-389.59 -208.098)"/><path class="d" d="M414.481,237.32l-22.151,2.858,1.094,8.552,22.151-2.858a6.4,6.4,0,0,0,5.538-7.19l-1.094-8.552A6.386,6.386,0,0,1,414.481,237.32Z" transform="translate(-386.212 -185.815)"/><rect class="b" width="36.598" height="36.598" transform="translate(74.167 37.289) rotate(-7.354)"/><rect class="d" width="36.598" height="18.891" transform="translate(74.16 37.284) rotate(-7.354)"/><rect class="c" width="7.123" height="36.598" transform="translate(74.155 37.311) rotate(-7.354)"/><rect class="d" width="11.321" height="36.598" transform="translate(99.23 34.065) rotate(-7.354)"/><path class="b" d="M465.681,234.654l-41.064,5.292a3.344,3.344,0,0,0-2.88,3.751l.982,7.525a3.344,3.344,0,0,0,3.751,2.88l41.064-5.292a3.344,3.344,0,0,0,2.88-3.751l-.982-7.525A3.36,3.36,0,0,0,465.681,234.654Z" transform="translate(-349.992 -180.268)"/><path class="c" d="M427.658,244.464a7.126,7.126,0,0,1,6.163-7.994l-5.694.737a7.137,7.137,0,0,0,1.831,14.157l5.694-.737A7.138,7.138,0,0,1,427.658,244.464Z" transform="translate(-349.751 -177.998)"/><path class="d" d="M445.825,234.894l-11.075,1.429a7.137,7.137,0,0,1,1.831,14.157l11.075-1.429a7.137,7.137,0,0,0-1.831-14.157Z" transform="translate(-333.91 -180.017)"/><path class="b" d="M446.712,210.5l-34.03.558a1.99,1.99,0,0,0-1.943,2.233l6.341,49.08a4.805,4.805,0,0,0,5.381,4.153l53.68-6.922c-3.327-25.835,45.976-23.937,60.58-22.821a2.854,2.854,0,0,0,2.813-4C528.036,206.524,446.712,210.5,446.712,210.5Z" transform="translate(-363.535 -210.284)"/><path class="d" d="M536.335,226c-1.786-4.086-5.27-7.458-9.892-10.2a16.585,16.585,0,0,1,1.049,1.965,2.852,2.852,0,0,1-2.813,4c-14.6-1.116-63.907-3.014-60.58,22.821l-50.8,6.565.581,4.488a4.805,4.805,0,0,0,5.381,4.153l53.68-6.922c-3.327-25.835,45.976-23.937,60.58-22.821A2.9,2.9,0,0,0,536.335,226Z" transform="translate(-360.357 -203.483)"/><path class="c" d="M421.224,265.571l-6.342-49.08a1.969,1.969,0,0,1,1.943-2.233l34.03-.558s59.821-2.9,84.07,12.862c-20.632-19.337-88.224-16.055-88.224-16.055l-34.03.558a1.99,1.99,0,0,0-1.943,2.233l6.342,49.08a4.742,4.742,0,0,0,4.444,4.086A6.929,6.929,0,0,1,421.224,265.571Z" transform="translate(-363.548 -210.269)"/></g><g transform="translate(763.373 466.455)"><path class="e" d="M506.45,286.883c1.965,13.13,6.1,25.031,9.691,36.531,1.809,5.716,3.506,11.343,4.689,16.747.335,1.362.514,2.657.781,4,.179,1.34.357,2.479.491,3.93.268,2.814.469,5.716.6,8.641a327.224,327.224,0,0,1-.268,35.325,272.13,272.13,0,0,1-4.131,34.722l-.022.067a11.286,11.286,0,1,0,22.173,4.22c.022-.156.067-.357.089-.491a292.988,292.988,0,0,0,2.813-37.759,350.9,350.9,0,0,0-1.407-37.491c-.29-3.148-.648-6.3-1.116-9.512-.2-1.563-.558-3.416-.871-5.069-.38-1.63-.714-3.327-1.161-4.913-1.7-6.386-3.8-12.326-5.873-18.109-4.176-11.5-8.418-22.53-10.495-33.4l-.022-.134a8.1,8.1,0,0,0-15.965,2.7Z" transform="translate(-506.342 -277.587)"/><path class="g" d="M532.16,430.318c.022-.156.067-.357.089-.491a292.944,292.944,0,0,0,2.813-37.759,350.865,350.865,0,0,0-1.407-37.491c-.29-3.148-.647-6.3-1.116-9.512-.2-1.563-.558-3.416-.871-5.069-.38-1.63-.715-3.327-1.161-4.912-1.7-6.386-3.8-12.326-5.873-18.109-4.176-11.5-8.418-22.53-10.495-33.4l-.022-.134a8.035,8.035,0,0,0-4.488-5.783,8.084,8.084,0,0,1,8.753,6.52l.022.134c2.077,10.874,6.319,21.905,10.495,33.4,2.077,5.783,4.176,11.7,5.873,18.109.447,1.563.781,3.26,1.161,4.913.313,1.652.647,3.506.871,5.069.469,3.215.8,6.364,1.116,9.512a351.114,351.114,0,0,1,1.407,37.491,292.691,292.691,0,0,1-2.813,37.759,3.2,3.2,0,0,1-.089.491,11.292,11.292,0,0,1-13.2,8.976,11.618,11.618,0,0,1-1.831-.536A11.341,11.341,0,0,0,532.16,430.318Z" transform="translate(-502.31 -277.555)"/><path class="f" d="M512.957,277.675a5.456,5.456,0,0,1,.6-.045,8.144,8.144,0,0,0-.737,4.689c1.965,13.13,6.1,25.031,9.691,36.531,1.809,5.716,3.506,11.343,4.689,16.747.335,1.362.514,2.657.781,4,.179,1.34.38,2.479.491,3.93.268,2.814.469,5.716.625,8.641a327.161,327.161,0,0,1-.268,35.325,272.109,272.109,0,0,1-4.131,34.722l-.022.067a11.276,11.276,0,0,0,8.976,13.2,11.053,11.053,0,0,0,5.069-.246,11.287,11.287,0,0,1-20.431-8.44l.022-.067A272.108,272.108,0,0,0,522.448,392a339.083,339.083,0,0,0,.268-35.325c-.134-2.925-.335-5.806-.625-8.641-.134-1.451-.313-2.59-.491-3.93-.268-1.317-.447-2.635-.781-4-1.183-5.4-2.88-11.031-4.689-16.747-3.595-11.477-7.726-23.379-9.691-36.531A8.147,8.147,0,0,1,512.957,277.675Z" transform="translate(-506.352 -277.533)"/><path class="b" d="M512.948,277.728a8.134,8.134,0,0,1,9.49,6.453l.022.134c1.675,8.8,4.779,17.73,8.128,26.907l-19.27-3.282a153.806,153.806,0,0,1-4.868-21.034A8.123,8.123,0,0,1,512.948,277.728Z" transform="translate(-506.342 -277.587)"/><path class="c" d="M514.141,283.559l-.022-.134a8.035,8.035,0,0,0-4.488-5.783,8.084,8.084,0,0,1,8.753,6.52l.022.134c1.675,8.8,4.779,17.73,8.128,26.907l-4.265-.737C518.941,301.288,515.815,292.356,514.141,283.559Z" transform="translate(-502.31 -277.567)"/><g transform="translate(0 0.043)"><path class="d" d="M512.76,278.9c.2.246.424.491.6.759A6.437,6.437,0,0,0,512.76,278.9Z" transform="translate(-498.45 -276.01)"/><path class="d" d="M512.786,278.685a8.157,8.157,0,0,0-1.206-.715A8.151,8.151,0,0,1,512.786,278.685Z" transform="translate(-499.905 -277.157)"/><path class="d" d="M509.58,277.66A8.022,8.022,0,0,1,514,278.4,8.022,8.022,0,0,0,509.58,277.66Z" transform="translate(-502.371 -277.606)"/><path class="d" d="M512.958,277.675a5.456,5.456,0,0,1,.6-.045,8.144,8.144,0,0,0-.737,4.689,180.156,180.156,0,0,0,6.654,26.952l-8.173-1.384a153.824,153.824,0,0,1-4.868-21.034A8.157,8.157,0,0,1,512.958,277.675Z" transform="translate(-506.352 -277.576)"/><path class="d" d="M513.1,279.152a5.9,5.9,0,0,0-.893-.782A5.9,5.9,0,0,1,513.1,279.152Z" transform="translate(-499.129 -276.663)"/><path class="d" d="M513.523,280.183a5.1,5.1,0,0,0-.313-.6C513.322,279.781,513.433,279.982,513.523,280.183Z" transform="translate(-497.896 -275.172)"/></g><path class="d" d="M512.958,277.728a8.134,8.134,0,0,1,9.49,6.453l.022.134c.581,3.015,1.362,6.029,2.211,9.088a20.311,20.311,0,0,1-14.38,10.964,145.443,145.443,0,0,1-3.863-17.462A8.157,8.157,0,0,1,512.958,277.728Z" transform="translate(-506.352 -277.587)"/><path class="h" d="M535.546,342.437c-.4,4.243-.871,8.485-1.474,12.75a3.217,3.217,0,0,1-.089.491,11.286,11.286,0,0,1-22.173-4.22l.022-.067c.8-4.153,1.429-8.4,2.01-12.661Z" transform="translate(-499.868 -202.201)"/><g transform="translate(11.743 136.529)"><path class="j" d="M522,346.32a12.307,12.307,0,0,1-.67,2.233A12.307,12.307,0,0,0,522,346.32Z" transform="translate(-499.627 -329.372)"/><path class="j" d="M513.842,338.73l5.582.96c-.38,2.412-.781,4.8-1.228,7.19l-.022.067a11.276,11.276,0,0,0,8.976,13.2,11.053,11.053,0,0,0,5.069-.246,11.871,11.871,0,0,0,1.072-1.965,11.279,11.279,0,0,1-21.481-6.475l.022-.067C512.614,347.237,513.262,342.995,513.842,338.73Z" transform="translate(-511.61 -338.73)"/></g><path class="i" d="M525.715,353.311c.022-.156.067-.357.089-.491.625-4.265,1.072-8.508,1.474-12.75l4.176.715c-.4,4.243-.871,8.485-1.474,12.75a3.217,3.217,0,0,1-.089.491,11.293,11.293,0,0,1-13.2,8.976,11.459,11.459,0,0,1-1.764-.514A11.3,11.3,0,0,0,525.715,353.311Z" transform="translate(-495.775 -200.548)"/></g><g transform="translate(615.459 721.487)"><path class="e" d="M550.931,424.663V397.421a243.4,243.4,0,0,0-30.457-2.367l-66.854-1.563a13.258,13.258,0,0,0-13.509,13.241v8.619a13.244,13.244,0,0,0,13.509,13.241l66.854-1.563A243.39,243.39,0,0,0,550.931,424.663Z" transform="translate(-440.11 -389.717)"/><path class="g" d="M515.389,399.208a239.967,239.967,0,0,1,34.432,3.014v-4.8a243.405,243.405,0,0,0-30.457-2.367l-66.854-1.563a13.241,13.241,0,0,0-11.5,6.319,13.254,13.254,0,0,1,7.5-2.166Z" transform="translate(-439 -389.718)"/><path class="f" d="M550.919,424.255V417c-7.346.759-14.76,1.206-22.151,1.34L461.913,419.9A13.258,13.258,0,0,1,448.4,406.659V398.04a12.721,12.721,0,0,1,.759-4.22,13.188,13.188,0,0,0-9.043,12.5v8.619a13.244,13.244,0,0,0,13.509,13.241l66.854-1.563A243.387,243.387,0,0,0,550.919,424.255Z" transform="translate(-440.098 -389.309)"/><path class="h" d="M453.629,393.491a13.258,13.258,0,0,0-13.509,13.241v8.619a13.244,13.244,0,0,0,13.509,13.241l28.8-.67V394.161Z" transform="translate(-440.098 -389.717)"/><path class="j" d="M482.434,427.537v-8.15l-20.521.514A13.258,13.258,0,0,1,448.4,406.659V398.04a12.721,12.721,0,0,1,.759-4.22,13.188,13.188,0,0,0-9.043,12.5v8.619a13.244,13.244,0,0,0,13.509,13.241Z" transform="translate(-440.098 -389.309)"/><path class="i" d="M448.535,397.655l28.8.67V428l3.975-.067V394.171l-28.8-.67a13.241,13.241,0,0,0-11.5,6.319A13.036,13.036,0,0,1,448.535,397.655Z" transform="translate(-439 -389.705)"/><path class="e" d="M500.937,431.824v-37.4a2.616,2.616,0,0,0-2.613-2.613h-5.962a2.616,2.616,0,0,0-2.613,2.613v37.4a2.616,2.616,0,0,0,2.613,2.613h5.962A2.6,2.6,0,0,0,500.937,431.824Z" transform="translate(-378.907 -391.788)"/><path class="g" d="M493.067,393.631a5.608,5.608,0,0,1,5.6,5.6V430.7a5.467,5.467,0,0,1-.849,2.925,5.6,5.6,0,0,0,2.657-4.756V397.4a5.6,5.6,0,0,0-10.361-2.948A5.8,5.8,0,0,1,493.067,393.631Z" transform="translate(-378.451 -391.8)"/><path class="f" d="M500.48,430.863a5.44,5.44,0,0,1-2.255.469,5.608,5.608,0,0,1-5.6-5.6V394.265a5.819,5.819,0,0,1,.469-2.255,5.611,5.611,0,0,0-3.349,5.113v31.462a5.614,5.614,0,0,0,10.74,2.278Z" transform="translate(-378.919 -391.541)"/><g transform="translate(46.334 16.144)"><path class="h" d="M460.86,406.979v-5.515a2.44,2.44,0,0,1,2.434-2.434h40.148a2.44,2.44,0,0,1,2.434,2.434v5.515a2.44,2.44,0,0,1-2.434,2.434H463.294A2.425,2.425,0,0,1,460.86,406.979Z" transform="translate(-460.86 -399.03)"/><path class="i" d="M504.782,406.745a5.09,5.09,0,0,1-3.126,1.072H467.023a5.184,5.184,0,0,1-5.18-5.18,5.089,5.089,0,0,1,1.072-3.126,5.128,5.128,0,0,0-2.054,4.109h0a5.184,5.184,0,0,0,5.18,5.18h34.633A5.066,5.066,0,0,0,504.782,406.745Z" transform="translate(-460.86 -398.438)"/><path class="j" d="M463.989,400.638h34.633a5.184,5.184,0,0,1,5.181,5.18,5.288,5.288,0,0,1-.8,2.769,5.15,5.15,0,0,0,2.411-4.377h0a5.184,5.184,0,0,0-5.18-5.18H465.6a5.15,5.15,0,0,0-4.377,2.412A5.287,5.287,0,0,1,463.989,400.638Z" transform="translate(-460.416 -399.03)"/></g><rect class="b" width="93.694" height="7.815" transform="translate(122.03 17.417)"/><rect class="d" width="93.694" height="2.322" transform="translate(122.03 22.91)"/><rect class="c" width="93.694" height="2.322" transform="translate(122.03 17.417)"/><path class="b" d="M557.687,407.433v-5.426a1.351,1.351,0,0,0-1.184-1.34l-18.288-2.032a1.355,1.355,0,0,0-1.5,1.34v9.49a1.357,1.357,0,0,0,1.5,1.34l18.288-2.032A1.368,1.368,0,0,0,557.687,407.433Z" transform="translate(-320.996 -383.384)"/><path class="c" d="M538.216,400.811l18.288,2.032a1.335,1.335,0,0,1,1.184,1.34v-2.166a1.351,1.351,0,0,0-1.184-1.34l-18.288-2.032a1.355,1.355,0,0,0-1.5,1.34v2.166A1.344,1.344,0,0,1,538.216,400.811Z" transform="translate(-320.995 -383.371)"/><path class="d" d="M556.5,405.416a1.335,1.335,0,0,0,1.184-1.34V401.33a1.351,1.351,0,0,1-1.184,1.34L538.216,404.7a1.355,1.355,0,0,1-1.5-1.34v2.747a1.344,1.344,0,0,0,1.5,1.34Z" transform="translate(-320.995 -380.05)"/></g><g transform="translate(398.28 714.808)"><path class="e" d="M448.492,434.944l4.421-26.3a239.388,239.388,0,0,0-29.006-7.235l-64.286-12.371a12.967,12.967,0,0,0-15.184,10.584l-1.407,8.329A12.973,12.973,0,0,0,353.9,422.93l64.8,9.356A241.984,241.984,0,0,0,448.492,434.944Z" transform="translate(-342.848 -388.809)"/><path class="g" d="M416.808,404.762a236.067,236.067,0,0,1,32.757,8.508l.781-4.622a239.388,239.388,0,0,0-29.006-7.235l-64.286-12.371a12.9,12.9,0,0,0-12.125,4.243,13.083,13.083,0,0,1,7.614-.871Z" transform="translate(-340.282 -388.794)"/><path class="f" d="M448.48,434.832l1.183-7.011c-7.235-.447-14.425-1.25-21.593-2.3l-64.8-9.356A12.957,12.957,0,0,1,352.4,401.181l1.407-8.329a13.231,13.231,0,0,1,1.407-3.952,12.916,12.916,0,0,0-10.763,10.606l-1.407,8.329a12.973,12.973,0,0,0,10.874,14.983l64.8,9.356A241.236,241.236,0,0,0,448.48,434.832Z" transform="translate(-342.836 -388.697)"/><path class="h" d="M359.621,389.034a12.967,12.967,0,0,0-15.184,10.584l-1.407,8.329A12.973,12.973,0,0,0,353.9,422.93l27.934,4.042,5.493-32.6Z" transform="translate(-342.848 -388.809)"/><path class="j" d="M381.839,426.86l1.317-7.86-19.9-2.836a12.957,12.957,0,0,1-10.874-14.983l1.407-8.329A13.233,13.233,0,0,1,355.2,388.9a12.916,12.916,0,0,0-10.763,10.606l-1.407,8.329A12.973,12.973,0,0,0,353.9,422.818Z" transform="translate(-342.848 -388.697)"/><path class="i" d="M352.522,392.4l27.711,5.337-4.823,28.649,3.863.581,5.493-32.6-27.711-5.337a12.9,12.9,0,0,0-12.125,4.243A12.658,12.658,0,0,1,352.522,392.4Z" transform="translate(-340.282 -388.807)"/><path class="e" d="M400.606,434.6l6.074-36.107a2.545,2.545,0,0,0-2.1-2.948l-5.739-.96a2.544,2.544,0,0,0-2.947,2.1l-6.074,36.107a2.544,2.544,0,0,0,2.1,2.948l5.739.96A2.551,2.551,0,0,0,400.606,434.6Z" transform="translate(-284.981 -381.74)"/><path class="g" d="M395.84,396.265a5.469,5.469,0,0,1,4.488,6.319l-5.113,30.368a5.465,5.465,0,0,1-1.3,2.7,5.487,5.487,0,0,0,3.349-4.153l5.113-30.368a5.465,5.465,0,0,0-9.512-4.511A5.359,5.359,0,0,1,395.84,396.265Z" transform="translate(-281.175 -381.503)"/><path class="f" d="M400.025,433.5a5.481,5.481,0,0,1-6.744-6.23L398.4,396.9a5.589,5.589,0,0,1,.826-2.1,5.5,5.5,0,0,0-4.064,4.4l-5.113,30.368a5.486,5.486,0,0,0,4.488,6.319A5.407,5.407,0,0,0,400.025,433.5Z" transform="translate(-284.757 -381.423)"/><g transform="translate(45.096 17.875)"><path class="h" d="M363.079,404.106l.893-5.314a2.378,2.378,0,0,1,2.747-1.943l38.742,6.52a2.378,2.378,0,0,1,1.943,2.747l-.893,5.314a2.378,2.378,0,0,1-2.747,1.943l-38.742-6.52A2.378,2.378,0,0,1,363.079,404.106Z" transform="translate(-363.044 -396.814)"/><path class="i" d="M405.19,411.037a5.164,5.164,0,0,1-3.193.536l-33.427-5.627a5.051,5.051,0,0,1-2.612-8.686,5.021,5.021,0,0,0-2.657,3.64h0a5.082,5.082,0,0,0,4.153,5.85l33.427,5.627A5.076,5.076,0,0,0,405.19,411.037Z" transform="translate(-362.818 -396.265)"/><path class="j" d="M366.6,398.34l33.427,5.627a5.065,5.065,0,0,1,4.153,5.85,4.956,4.956,0,0,1-1.228,2.546,5.126,5.126,0,0,0,3.059-3.818h0a5.082,5.082,0,0,0-4.153-5.85l-33.427-5.627a5.111,5.111,0,0,0-4.622,1.63A4.911,4.911,0,0,1,366.6,398.34Z" transform="translate(-362.1 -396.585)"/></g><rect class="b" width="7.659" height="91.729" transform="translate(118.057 38.633) rotate(-80.439)"/><rect class="d" width="2.278" height="91.729" transform="translate(118.044 38.641) rotate(-80.439)"/><rect class="c" width="2.278" height="91.729" transform="translate(118.94 33.34) rotate(-80.439)"/><path class="b" d="M453.247,415.4l-15.765-5.873-1.273,7.547,16.814-.38A.667.667,0,0,0,453.247,415.4Z" transform="translate(-227.739 -363.262)"/><path class="d" d="M453.034,413.776a.671.671,0,0,0,.223-1.3L436.6,411.9l-.38,2.255Z" transform="translate(-227.727 -360.339)"/><path class="c" d="M452.586,416.631a.644.644,0,0,0,.067-1.228l-15.765-5.873-.179,1.116,15.765,5.873C452.519,416.541,452.542,416.608,452.586,416.631Z" transform="translate(-227.123 -363.262)"/></g><g transform="translate(785.738 365.358)"><g transform="translate(0 140.315)"><path class="e" d="M563.52,300.375l-24.629-5.225-22.2,87.241a12.234,12.234,0,0,0,9.378,14.737l7.793,1.652a12.245,12.245,0,0,0,14.559-9.669ZM531.433,391.01a5.763,5.763,0,1,1,6.833-4.444A5.779,5.779,0,0,1,531.433,391.01Z" transform="translate(-516.356 -295.15)"/><path class="g" d="M543.224,296.065l-4.332-.915-22.2,87.241A12.22,12.22,0,0,0,520.2,394a12.14,12.14,0,0,1-.514-7.212S539.361,306,543.224,296.065Z" transform="translate(-516.357 -295.15)"/><path class="f" d="M563.443,298.254l-6.565-1.384c-.714,6.788-14.425,81.033-14.425,81.033a12.117,12.117,0,0,1-4.466,7.257,5.741,5.741,0,0,1-6.609,3.751,5.64,5.64,0,0,1-2.479-1.228c-.335-.045-.67-.045-1-.112L520.1,385.92a12.6,12.6,0,0,1-3.662-1.474,12.2,12.2,0,0,0,9.579,10.584l7.793,1.652a12.245,12.245,0,0,0,14.559-9.669Z" transform="translate(-516.279 -293.029)"/><path class="h" d="M548.438,347.981s.8-5.2,2.211-13.018l-30.413-6.453c-1.9,7.726-3.55,12.75-3.55,12.75A12.234,12.234,0,0,0,526.064,356l7.793,1.652A12.273,12.273,0,0,0,548.438,347.981Zm-16.993,1.9a5.763,5.763,0,1,1,6.833-4.444A5.779,5.779,0,0,1,531.445,349.879Z" transform="translate(-516.368 -254.019)"/><path class="j" d="M550.559,332.142l-6.476-1.362-1.049,5.582a12.541,12.541,0,0,1-5.716,8.284,5.306,5.306,0,0,1-1.072,1.161c-.067.045-.134.112-.2.156a5.259,5.259,0,0,1-1.318.782h0a5.5,5.5,0,0,1-1.474.38,1.8,1.8,0,0,1-.357.022,5.265,5.265,0,0,1-1.563-.089,3.632,3.632,0,0,1-.871-.29,6.138,6.138,0,0,1-.67-.313,14.955,14.955,0,0,1-1.719-.179l-8.016-1.7a12.284,12.284,0,0,1-3.617-1.451,12.244,12.244,0,0,0,9.535,10.048l7.793,1.652a12.245,12.245,0,0,0,14.559-9.669C548.349,345.182,549.153,339.98,550.559,332.142Z" transform="translate(-516.279 -251.22)"/><path class="i" d="M518.751,351.234a13.244,13.244,0,0,1,.313-3.729l4.332-18.288-3.439-.737c-1.9,7.726-3.26,12.795-3.26,12.795A12.155,12.155,0,0,0,518.751,351.234Z" transform="translate(-516.357 -254.056)"/></g><path class="h" d="M519.157,274.39l-2.389,11.3a4.789,4.789,0,0,0,2.255,5.136c6.5,3.8,21.191,14.179,19.538,29.9l12.3,2.613,12.3,2.613c4.845-15.05,22.486-18.6,29.988-19.4a4.815,4.815,0,0,0,4.153-3.8l2.389-11.3Z" transform="translate(-516.003 -180.431)"/><path class="i" d="M522.876,290.366a5.007,5.007,0,0,1-2.211-5.359l2.077-9.847-3.595-.759-2.389,11.3a4.789,4.789,0,0,0,2.255,5.136c6.5,3.8,21.191,14.179,19.538,29.9l3.6.759C543.977,304.991,529.351,294.273,522.876,290.366Z" transform="translate(-516.016 -180.419)"/><g transform="translate(40.6 109.634)"><path class="j" d="M571.059,281.41l-1.474,6.944A5.479,5.479,0,0,1,565.3,292.8c-7.547,1.161-25.411,5.739-30.748,23.089l6.565,1.384c4.845-15.05,22.486-18.6,29.988-19.4a4.815,4.815,0,0,0,4.153-3.8l2.389-11.3Z" transform="translate(-534.55 -281.41)"/></g><path class="b" d="M601.807,287.7,520.35,270.436a2.112,2.112,0,0,0-2.5,1.63l-.983,4.667a2.112,2.112,0,0,0,1.63,2.5l81.458,17.261a2.112,2.112,0,0,0,2.5-1.63l.983-4.667A2.112,2.112,0,0,0,601.807,287.7Z" transform="translate(-515.812 -185.364)"/><path class="c" d="M600.728,287.451l-79.895-16.926a2.9,2.9,0,0,0-3.439,2.233l-.335,1.608a2.9,2.9,0,0,1,3.439-2.233l79.895,16.926a2.9,2.9,0,0,1,2.233,3.439l.335-1.608A2.892,2.892,0,0,0,600.728,287.451Z" transform="translate(-515.514 -185.275)"/><path class="d" d="M599.664,292.014l-79.895-16.926a2.9,2.9,0,0,1-2.233-3.439l-.581,2.747a2.9,2.9,0,0,0,2.233,3.439l79.895,16.926a2.9,2.9,0,0,0,3.439-2.233l.581-2.747A2.9,2.9,0,0,1,599.664,292.014Z" transform="translate(-515.723 -183.809)"/><path class="b" d="M604.367,275.6l-81.458-17.261a2.112,2.112,0,0,0-2.5,1.63l-.983,4.667a2.112,2.112,0,0,0,1.63,2.5l81.458,17.261a2.112,2.112,0,0,0,2.5-1.63L606,278.1A2.112,2.112,0,0,0,604.367,275.6Z" transform="translate(-512.655 -200.283)"/><rect class="c" width="82.329" height="18.623" transform="translate(8.872 66.97) rotate(11.964)"/><rect class="b" width="82.329" height="2.814" transform="translate(5.603 82.45) rotate(11.964)"/><rect class="e" width="82.329" height="59.463" transform="translate(23.065 0) rotate(11.964)"/><rect class="g" width="5.113" height="59.463" transform="translate(23.053 0.036) rotate(11.964)"/><rect class="f" width="8.641" height="59.463" transform="translate(95.149 15.275) rotate(11.964)"/><rect class="f" width="11.477" height="59.463" transform="translate(77.901 11.622) rotate(11.964)"/><rect class="f" width="6.788" height="59.463" transform="translate(60.628 7.964) rotate(11.964)"/><rect class="f" width="2.992" height="59.463" transform="translate(43.418 4.25) rotate(11.964)"/><rect class="f" width="2.992" height="59.463" transform="translate(71.117 10.202) rotate(11.964)"/><path class="c" d="M603.3,275.351,523.4,258.426a2.9,2.9,0,0,0-3.439,2.233l-.335,1.608a2.9,2.9,0,0,1,3.439-2.233l79.895,16.926A2.9,2.9,0,0,1,605.2,280.4l.335-1.608A2.892,2.892,0,0,0,603.3,275.351Z" transform="translate(-512.346 -200.194)"/><path class="d" d="M602.224,279.914l-79.895-16.926a2.9,2.9,0,0,1-2.233-3.439l-.581,2.747a2.9,2.9,0,0,0,2.233,3.439l79.895,16.926a2.9,2.9,0,0,0,3.439-2.233l.581-2.747A2.892,2.892,0,0,1,602.224,279.914Z" transform="translate(-512.566 -198.728)"/><path class="d" d="M548.116,275.763a6.744,6.744,0,1,1-5.2-7.994A6.764,6.764,0,0,1,548.116,275.763Z" transform="translate(-493.672 -188.771)"/><circle class="b" cx="6.743" cy="6.743" r="6.743" transform="matrix(0.838, -0.546, 0.546, 0.838, 37.4, 81.984)"/><circle class="c" cx="6.743" cy="6.743" r="6.743" transform="matrix(0.857, -0.515, 0.515, 0.857, 37.95, 82.313)"/></g><g transform="translate(320.477 196.222)"><g transform="translate(195.567 20.802)"><path class="b" d="M428.662,450.868l-11.9,4.086-20.32-59.084a16.036,16.036,0,0,1,3.818-16.457L533.834,246.666a3.37,3.37,0,0,0,.8-3.439l-21.5-62.545a3.306,3.306,0,0,0-4.22-2.054L432.748,204.82l-4.086-11.879,76.166-26.192a15.927,15.927,0,0,1,20.208,9.87l21.5,62.545a16.036,16.036,0,0,1-3.818,16.457L409.146,388.391a3.37,3.37,0,0,0-.8,3.439Z" transform="translate(-395.588 -165.882)"/></g><g transform="translate(195.602 20.802)"><path class="c" d="M401.468,340.188,535.043,207.44a3.37,3.37,0,0,0,.8-3.439l-1.183-3.461a3.37,3.37,0,0,1-.8,3.439L400.285,336.727a15.969,15.969,0,0,0-3.818,16.457l1.183,3.461A15.923,15.923,0,0,1,401.468,340.188Z" transform="translate(-395.604 -123.15)"/><path class="c" d="M486.588,166.749,410.4,192.941l1.183,3.461,76.166-26.192a15.927,15.927,0,0,1,20.208,9.87l-1.183-3.461A15.894,15.894,0,0,0,486.588,166.749Z" transform="translate(-377.361 -165.882)"/></g><g transform="translate(202.164 21.312)"><path class="d" d="M489.055,172.207a3.306,3.306,0,0,0-4.22-2.054L411.55,195.34l1.541,4.466L489.5,173.524Z" transform="translate(-382.505 -161.355)"/><g class="ac" transform="matrix(1, 0, 0, 1, -224.75, -99.13)"><path class="d" d="M510.184,166.11a15.863,15.863,0,0,1,5.225,7.3l21.5,62.545a16.036,16.036,0,0,1-3.818,16.457L399.519,385.184a3.37,3.37,0,0,0-.8,3.439l20.32,59.084-7.436,2.546,1.541,4.466,11.9-4.086-20.32-59.084a3.37,3.37,0,0,1,.8-3.439L539.1,255.338a16.015,16.015,0,0,0,3.818-16.457l-21.5-62.545A15.888,15.888,0,0,0,510.184,166.11Z" transform="translate(-173.79 -66.98)"/></g></g><path class="h" d="M597.137,226.909,333.4,317.589a2.592,2.592,0,0,1-3.3-1.608l-21.95-63.817a2.592,2.592,0,0,1,1.608-3.3l263.733-90.68a2.592,2.592,0,0,1,3.3,1.608l21.95,63.817A2.592,2.592,0,0,1,597.137,226.909Z" transform="translate(-308.006 -154.753)"/><g class="ab" transform="matrix(1, 0, 0, 1, -22.59, -77.82)"><path class="i" d="M571,158.577,311.572,247.783a4.9,4.9,0,0,0-3.037,6.208l1.474,4.287a4.9,4.9,0,0,1,3.037-6.208l259.423-89.206a4.9,4.9,0,0,1,6.208,3.037l-1.474-4.287A4.87,4.87,0,0,0,571,158.577Z" transform="translate(-285.09 -76.59)"/></g><g class="aa" transform="matrix(1, 0, 0, 1, -22.59, -77.82)"><path class="j" d="M581.431,187.538,322.008,276.744a4.9,4.9,0,0,1-6.208-3.037l3.93,11.41a4.9,4.9,0,0,0,6.208,3.037l259.423-89.206a4.9,4.9,0,0,0,3.037-6.208l-3.93-11.41A4.888,4.888,0,0,1,581.431,187.538Z" transform="translate(-275.81 -48.21)"/></g><path class="e" d="M585.752,238.725,341.8,322.595a3.815,3.815,0,0,1-4.846-2.367l-25.7-74.737a3.815,3.815,0,0,1,2.367-4.845l243.949-83.869a3.815,3.815,0,0,1,4.846,2.367l25.7,74.737A3.806,3.806,0,0,1,585.752,238.725Z" transform="translate(-304.257 -156.566)"/><path class="g" d="M555.719,162.659l-237.607,81.7a7.154,7.154,0,0,0-4.444,9.11l5,14.536a7.173,7.173,0,0,1,4.444-9.11l237.607-81.7a7.173,7.173,0,0,1,9.11,4.444l-5-14.536A7.154,7.154,0,0,0,555.719,162.659Z" transform="translate(-301.511 -149.541)"/><path class="g" d="M553.9,157.369l-237.607,81.7a7.154,7.154,0,0,0-4.444,9.11l2.278,6.61a7.173,7.173,0,0,1,4.443-9.11l237.607-81.7a7.173,7.173,0,0,1,9.11,4.444l-2.278-6.609A7.154,7.154,0,0,0,553.9,157.369Z" transform="translate(-303.755 -156.064)"/><g class="z" transform="matrix(1, 0, 0, 1, -22.59, -77.82)"><path class="f" d="M565.928,190.3,328.32,272a7.173,7.173,0,0,1-9.11-4.444l6.587,19.159a7.154,7.154,0,0,0,9.11,4.444l237.607-81.7a7.154,7.154,0,0,0,4.443-9.11l-6.587-19.159A7.155,7.155,0,0,1,565.928,190.3Z" transform="translate(-271.6 -48.38)"/></g><path class="f" d="M563.6,183.53l-237.607,81.7a7.173,7.173,0,0,1-9.11-4.444l2.858,8.351a7.154,7.154,0,0,0,9.11,4.444l237.607-81.7a7.155,7.155,0,0,0,4.444-9.11l-2.858-8.351A7.154,7.154,0,0,1,563.6,183.53Z" transform="translate(-297.064 -134.552)"/><g transform="translate(203.275 305.468)"><path class="e" d="M441.23,293.37l-42.18,14.492L444.758,460.64a21.668,21.668,0,0,0,27.688,13.844l13.353-4.578A21.71,21.71,0,0,0,499.13,441.95Zm33.829,166.957a10.19,10.19,0,1,1,6.319-12.951A10.189,10.189,0,0,1,475.059,460.327Z" transform="translate(-399.028 -293.362)"/><g transform="translate(0.084)"><rect class="f" width="44.592" height="7.346" transform="translate(0 14.501) rotate(-18.977)"/></g><path class="g" d="M406.476,298.72l-7.436,2.546,45.708,152.778a21.6,21.6,0,0,0,15.921,14.425A21.638,21.638,0,0,1,453.323,458C453.345,458,409.646,317.343,406.476,298.72Z" transform="translate(-399.04 -286.766)"/><path class="f" d="M424.154,293.37,412.9,297.233c5.113,10.986,51.871,136.276,51.871,136.276a21.522,21.522,0,0,1-.179,15.095,10.181,10.181,0,0,1-6.609,11.723,9.909,9.909,0,0,1-4.89.38c-.558.246-1.049.558-1.63.759l-13.353,4.577a21.317,21.317,0,0,1-6.922,1.072,21.616,21.616,0,0,0,24.183,7.346l13.353-4.578a21.71,21.71,0,0,0,13.331-27.956Z" transform="translate(-381.951 -293.362)"/><path class="h" d="M477.32,371.956s-3.506-8.619-8.508-21.816L416.74,368.048c4.176,13.465,6.208,22.6,6.208,22.6a21.668,21.668,0,0,0,27.688,13.844l13.353-4.578A21.71,21.71,0,0,0,477.32,371.956Zm-24.071,18.377a10.19,10.19,0,1,1,6.319-12.951A10.189,10.189,0,0,1,453.249,390.333Z" transform="translate(-377.217 -223.368)"/><path class="j" d="M463.165,350.14l-11.075,3.818L455.6,363.4a22.062,22.062,0,0,1-1.161,17.8,9.692,9.692,0,0,1-.558,2.747,2.973,2.973,0,0,1-.156.4,10.823,10.823,0,0,1-1.273,2.412v.022a11.022,11.022,0,0,1-1.9,1.92,4.213,4.213,0,0,1-.514.357,10.45,10.45,0,0,1-2.479,1.3,9.647,9.647,0,0,1-1.585.38,13.163,13.163,0,0,1-1.317.134,24.4,24.4,0,0,1-2.791,1.3l-13.71,4.711a21.964,21.964,0,0,1-6.833,1.094,21.64,21.64,0,0,0,23.625,6.565l13.353-4.578A21.71,21.71,0,0,0,471.628,372C471.673,371.956,468.167,363.337,463.165,350.14Z" transform="translate(-371.57 -223.368)"/><path class="i" d="M435.411,395.01a23.676,23.676,0,0,1-2.9-5.94l-10.093-31.73-5.9,2.032c4.176,13.465,6.721,22.419,6.721,22.419A21.491,21.491,0,0,0,435.411,395.01Z" transform="translate(-377.488 -214.491)"/></g><path class="e" d="M449.791,279.059l-4.421,1.518a1.33,1.33,0,0,0-.916,1.362l.357,9.155a9.495,9.495,0,0,1-6.409,9.356l-12.415,4.265-12.415,4.265a9.5,9.5,0,0,1-10.807-3.439l-5.359-7.436a1.367,1.367,0,0,0-1.563-.491l-4.421,1.518a1.385,1.385,0,0,0-.648,2.144l18.779,24.339,21.079-7.257,21.079-7.257-.156-30.748A1.323,1.323,0,0,0,449.791,279.059Z" transform="translate(-206.301 -5.625)"/><g transform="translate(184.217 291.912)"><path class="g" d="M402.775,295.3l-5.359-7.436a1.367,1.367,0,0,0-1.563-.491l-4.421,1.518a1.385,1.385,0,0,0-.648,2.144l18.779,24.339L417,312.828l-11.634-15.05A10.482,10.482,0,0,1,402.775,295.3Z" transform="translate(-390.505 -287.295)"/></g><g transform="translate(234.245 273.363)"><path class="f" d="M422.154,279.059l-4.421,1.518a1.33,1.33,0,0,0-.916,1.362l.357,9.155a9.458,9.458,0,0,1-4.265,8.262L413,314.942l11.142-3.841-.156-30.748A1.4,1.4,0,0,0,422.154,279.059Z" transform="translate(-412.91 -278.989)"/></g></g><g transform="translate(643.711 780.038)"><g class="y" transform="matrix(1, 0, 0, 1, -345.82, -661.64)"><rect class="b" width="4.399" height="46.356" transform="translate(350.24 671.84) rotate(-71.72)"/></g><rect class="d" width="4.399" height="1.139" transform="translate(4.359 10.167) rotate(-71.723)"/><rect class="d" width="1.228" height="46.356" transform="translate(5.386 7.135) rotate(-71.717)"/><path class="c" d="M499.074,436.469l-.335.982L454.75,422.915l1.384-.625Z" transform="translate(-450.312 -412.758)"/><path class="b" d="M478.134,430.269l-3.684,1.116,1.384-4.176Z" transform="translate(-426.023 -406.692)"/><path class="c" d="M478.134,428.58,474.45,429.7l.335-.982Z" transform="translate(-426.023 -405.003)"/><path class="d" d="M477.58,430.269l-2.68-1.9.38-1.161Z" transform="translate(-425.468 -406.692)"/><path class="b" d="M457.178,418.509,452.8,431.751a.7.7,0,0,0,.447.893l1.541.514a.7.7,0,0,0,.893-.447l4.377-13.241a.7.7,0,0,0-.447-.893l-1.541-.514A.7.7,0,0,0,457.178,418.509Z" transform="translate(-452.762 -418.021)"/><g class="x" transform="matrix(1, 0, 0, 1, -345.82, -661.64)"><path class="c" d="M456.981,418.848l-4.109,12.438a1.157,1.157,0,0,0,.715,1.451l.469.156a1.139,1.139,0,0,1-.715-1.451L457.45,419a1.139,1.139,0,0,1,1.451-.715l-.469-.156A1.139,1.139,0,0,0,456.981,418.848Z" transform="translate(-106.88 243.68)"/></g><path class="d" d="M458.471,419.442l-4.109,12.438a1.123,1.123,0,0,1-1.273.737.966.966,0,0,0,.156.089l.715.246a1.157,1.157,0,0,0,1.451-.715l4.109-12.437a1.157,1.157,0,0,0-.715-1.451l-.715-.246a.491.491,0,0,0-.179-.022A1.137,1.137,0,0,1,458.471,419.442Z" transform="translate(-452.358 -417.949)"/></g><g transform="translate(543.759 785.883)"><rect class="b" width="3.439" height="36.375" transform="translate(38.326 4.55) rotate(82.519)"/><rect class="d" width="0.893" height="3.439" transform="translate(37.448 4.601) rotate(-7.481)"/><rect class="d" width="0.96" height="36.375" transform="translate(38.664 7.004) rotate(82.525)"/><path class="c" d="M409.089,428.175l-.089-.781,36.062-4.734-.782.915Z" transform="translate(-406.767 -418.148)"/><path class="b" d="M408,426.812l2.233-2.032.447,3.416Z" transform="translate(-408 -415.534)"/><path class="c" d="M408,426.812l2.233-2.032.089.781Z" transform="translate(-408 -415.534)"/><path class="d" d="M408,425.69l2.546.447.134.938Z" transform="translate(-408 -414.412)"/><path class="b" d="M428.727,431.984,427.3,421.132a.572.572,0,0,0-.625-.491l-1.25.156a.572.572,0,0,0-.491.625l1.429,10.852a.572.572,0,0,0,.625.491l1.25-.156A.556.556,0,0,0,428.727,431.984Z" transform="translate(-387.127 -420.639)"/><path class="c" d="M428.114,431.626l-1.34-10.182a.919.919,0,0,0-1-.782l-.38.045a.9.9,0,0,1,1,.782l1.34,10.182a.9.9,0,0,1-.782,1l.38-.045A.886.886,0,0,0,428.114,431.626Z" transform="translate(-386.559 -420.616)"/><path class="d" d="M427.151,431.818l-1.34-10.182a.877.877,0,0,1,.648-.96c-.045,0-.089-.022-.134,0l-.581.067a.919.919,0,0,0-.782,1l1.34,10.182a.919.919,0,0,0,1,.782l.6-.067a.318.318,0,0,0,.134-.045A.915.915,0,0,1,427.151,431.818Z" transform="translate(-387.091 -420.607)"/></g><g transform="translate(736.082 760.816)"><path class="b" d="M537.829,412.46l-41.8,20.007-1.9,3.349,3.8.625,41.8-20.007Z" transform="translate(-494.13 -405.657)"/><g transform="translate(0 6.761)"><rect class="d" width="1.139" height="4.399" transform="matrix(0.902, -0.432, 0.432, 0.902, 42.667, 0.492)"/><rect class="d" width="1.228" height="46.356" transform="matrix(0.432, 0.902, -0.902, 0.432, 45.114, 2.89)"/><path class="c" d="M495.427,433.383l-.447-.915,41.8-20.007-.581,1.407Z" transform="translate(-493.082 -412.418)"/><path class="c" d="M494.13,424.769l1.9-3.349.447.915Z" transform="translate(-494.13 -401.371)"/><path class="d" d="M494.13,423.191l3.26-.491.536,1.116Z" transform="translate(-494.13 -399.793)"/></g><path class="d" d="M534.63,419.178a.421.421,0,0,1-.045-.179v-6.587a.406.406,0,0,1,.424-.4.393.393,0,0,1,.4.424v6.587a.406.406,0,0,1-.424.4A.42.42,0,0,1,534.63,419.178Zm-2.211,1.474a.42.42,0,0,0,.424-.4v-6.587a.413.413,0,1,0-.826-.022v6.587a.441.441,0,0,0,.4.424Zm-2.568,1.228a.42.42,0,0,0,.424-.4V414.89a.42.42,0,0,0-.4-.424.435.435,0,0,0-.424.4v6.587a.421.421,0,0,0,.045.179A.362.362,0,0,0,529.851,421.88Zm-2.568,1.228a.42.42,0,0,0,.424-.4v-6.587a.435.435,0,0,0-.4-.424.42.42,0,0,0-.424.4v6.587a.42.42,0,0,0,.045.179A.344.344,0,0,0,527.284,423.108Zm-2.568,1.228a.42.42,0,0,0,.424-.4v-6.587a.42.42,0,0,0-.4-.424.435.435,0,0,0-.424.4v6.587a.422.422,0,0,0,.045.179A.344.344,0,0,0,524.716,424.336Zm-2.59,1.228a.42.42,0,0,0,.424-.4v-6.587a.413.413,0,1,0-.826-.022v6.587a.42.42,0,0,0,.045.179A.383.383,0,0,0,522.125,425.564Zm-2.568,1.25a.42.42,0,0,0,.424-.4v-6.587a.413.413,0,0,0-.826-.022v6.587a.422.422,0,0,0,.045.179A.393.393,0,0,0,519.557,426.814Zm-2.568,1.228a.42.42,0,0,0,.424-.4v-6.587a.413.413,0,0,0-.826-.022v6.587a.422.422,0,0,0,.045.179A.37.37,0,0,0,516.99,428.042Zm-2.568,1.228a.436.436,0,0,0,.424-.4v-6.587a.42.42,0,0,0-.4-.424.435.435,0,0,0-.424.4v6.587a.422.422,0,0,0,.045.179A.344.344,0,0,0,514.422,429.271Zm-2.59,1.228a.42.42,0,0,0,.424-.4V423.51a.435.435,0,0,0-.4-.424.42.42,0,0,0-.424.4v6.587a.422.422,0,0,0,.045.179A.383.383,0,0,0,511.832,430.5Zm-2.568,1.228a.436.436,0,0,0,.424-.4v-6.587a.42.42,0,0,0-.4-.424.436.436,0,0,0-.424.4V431.3a.422.422,0,0,0,.045.179A.362.362,0,0,0,509.264,431.727Zm-2.568,1.228a.42.42,0,0,0,.424-.4l.022-6.587a.413.413,0,0,0-.826-.022v6.587a.422.422,0,0,0,.045.179A.3.3,0,0,0,506.7,432.955Zm-2.59,1.25a.435.435,0,0,0,.424-.4v-6.587a.413.413,0,1,0-.826-.022v6.587a.42.42,0,0,0,.045.179A.466.466,0,0,0,504.106,434.205Zm-2.568,1.228a.42.42,0,0,0,.424-.4v-6.587a.413.413,0,1,0-.826-.022v6.587a.442.442,0,0,0,.4.424Zm-2.568,1.228a.435.435,0,0,0,.424-.4v-6.587a.42.42,0,0,0-.4-.424.435.435,0,0,0-.424.4v6.587a.42.42,0,0,0,.045.179A.362.362,0,0,0,498.97,436.662ZM496.4,437.89a.42.42,0,0,0,.424-.4V430.9a.413.413,0,0,0-.826-.022v6.587a.42.42,0,0,0,.045.179A.344.344,0,0,0,496.4,437.89Z" transform="translate(-491.824 -406.212)"/><path class="b" d="M522.548,423.206l-6.364-13.286A.891.891,0,0,0,515,409.5l-1.831.871a.9.9,0,0,0-.424,1.183l6.364,13.286a.891.891,0,0,0,1.184.424l1.831-.871A.891.891,0,0,0,522.548,423.206Z" transform="translate(-471.28 -409.413)"/><path class="c" d="M515.391,410.947l5.493,11.477a1.847,1.847,0,0,1-.625,2.322.939.939,0,0,0,.335-.089,1.92,1.92,0,0,0,.893-2.546l-5.493-11.477a1.92,1.92,0,0,0-2.546-.893,1.2,1.2,0,0,0-.268.2A1.9,1.9,0,0,1,515.391,410.947Z" transform="translate(-470.642 -409.235)"/><path class="d" d="M519.521,423.246l-5.493-11.477a1.907,1.907,0,0,1,.424-2.188,1.576,1.576,0,0,0-.558.134A1.92,1.92,0,0,0,513,412.26l5.493,11.477a1.92,1.92,0,0,0,2.546.893,1.864,1.864,0,0,0,.469-.357A1.872,1.872,0,0,1,519.521,423.246Z" transform="translate(-471.088 -409.208)"/></g><g transform="translate(729.585 807.923)"><g class="w" transform="matrix(1, 0, 0, 1, -431.69, -689.52)"><path class="b" d="M524.334,433.807l-30.882-2.747-2.233,1.273,1.965,1.652,30.882,2.747Z" transform="translate(-59.53 259.69)"/></g><g transform="translate(0 1.23)"><rect class="d" width="2.947" height="0.759" transform="translate(32.102 5.681) rotate(-84.888)"/><rect class="d" width="0.826" height="31.016" transform="translate(32.947 4.859) rotate(95.112)"/><path class="c" d="M492.19,431.73l.067-.67,30.882,2.747-.826.625Z" transform="translate(-490.024 -431.06)"/><path class="c" d="M491.22,432.333l2.233-1.273-.067.67Z" transform="translate(-491.22 -431.06)"/><path class="d" d="M491.22,431.63l2.032.826-.067.826Z" transform="translate(-491.22 -430.357)"/></g><path class="d" d="M520.615,437.378a.17.17,0,0,1,.045-.112l2.255-3.8a.276.276,0,0,1,.469.29l-2.255,3.8a.265.265,0,0,1-.38.089A.319.319,0,0,1,520.615,437.378Zm-1.764.089a.265.265,0,0,0,.38-.089l2.255-3.8a.276.276,0,1,0-.469-.29l-2.255,3.8c-.022.045-.045.067-.045.112A.292.292,0,0,0,518.851,437.468Zm-1.9-.156a.265.265,0,0,0,.38-.089l2.255-3.8a.285.285,0,0,0-.089-.38.265.265,0,0,0-.38.089l-2.255,3.8c-.022.045-.045.067-.045.112A.272.272,0,0,0,516.953,437.311Zm-1.9-.179a.265.265,0,0,0,.38-.089l2.255-3.8a.276.276,0,0,0-.469-.29l-2.255,3.8c-.022.045-.045.067-.045.112A.228.228,0,0,0,515.055,437.133Zm-1.9-.179a.285.285,0,0,0,.38-.089l2.255-3.8a.276.276,0,0,0-.469-.29l-2.255,3.8c-.022.045-.045.067-.045.112A.228.228,0,0,0,513.157,436.954Zm-1.92-.156a.265.265,0,0,0,.38-.089l2.255-3.8a.276.276,0,0,0-.469-.29l-2.255,3.8c-.022.045-.045.067-.045.112A.318.318,0,0,0,511.236,436.8Zm-1.9-.179a.265.265,0,0,0,.38-.089l2.255-3.8a.276.276,0,0,0-.469-.29l-2.255,3.8c-.022.045-.045.067-.045.112A.292.292,0,0,0,509.338,436.619Zm-1.9-.156a.265.265,0,0,0,.38-.089l2.255-3.8a.276.276,0,0,0-.469-.29l-2.255,3.8c-.022.045-.045.067-.045.112A.349.349,0,0,0,507.44,436.463Zm-1.9-.179a.265.265,0,0,0,.38-.089l2.255-3.8a.276.276,0,0,0-.469-.29l-2.255,3.8c-.022.045-.045.067-.045.112A.318.318,0,0,0,505.542,436.284Zm-1.9-.179a.265.265,0,0,0,.38-.089l2.255-3.8a.285.285,0,0,0-.089-.38.265.265,0,0,0-.38.089l-2.255,3.8c-.022.045-.045.067-.045.112A.255.255,0,0,0,503.644,436.105Zm-1.9-.156a.265.265,0,0,0,.38-.089l2.255-3.8a.285.285,0,0,0-.089-.38.265.265,0,0,0-.38.089l-2.255,3.8c-.022.045-.045.067-.045.112A.24.24,0,0,0,501.746,435.949Zm-1.9-.179a.265.265,0,0,0,.38-.089l2.255-3.8a.276.276,0,0,0-.469-.29l-2.255,3.8c-.022.045-.045.067-.045.112A.228.228,0,0,0,499.848,435.771Zm-1.92-.156a.285.285,0,0,0,.38-.089l2.255-3.8a.285.285,0,0,0-.089-.38.265.265,0,0,0-.38.089l-2.255,3.8c-.022.045-.045.067-.045.112A.349.349,0,0,0,497.928,435.614Zm-1.9-.179a.265.265,0,0,0,.38-.089l2.255-3.8a.285.285,0,0,0-.089-.38.265.265,0,0,0-.38.089l-2.255,3.8c-.022.045-.045.067-.045.112A.318.318,0,0,0,496.03,435.436Zm-1.9-.179a.265.265,0,0,0,.38-.089l2.255-3.8a.285.285,0,0,0-.089-.38.265.265,0,0,0-.38.089l-2.255,3.8c-.022.045-.045.067-.045.112A.292.292,0,0,0,494.132,435.257Zm-1.9-.156a.265.265,0,0,0,.38-.089l2.255-3.8a.285.285,0,0,0-.089-.38.265.265,0,0,0-.38.089l-2.255,3.8c-.022.045-.045.067-.045.112A.318.318,0,0,0,492.234,435.1Z" transform="translate(-490.135 -430.164)"/><g class="v" transform="matrix(1, 0, 0, 1, -431.69, -689.52)"><path class="b" d="M508.314,441.095l.871-9.825a.6.6,0,0,0-.536-.648l-1.34-.112a.6.6,0,0,0-.648.536l-.871,9.825a.6.6,0,0,0,.536.648l1.34.112A.6.6,0,0,0,508.314,441.095Z" transform="translate(-41.56 259.01)"/></g><path class="c" d="M508.15,431.88l-.759,8.463a1.265,1.265,0,0,1-1.161,1.139.655.655,0,0,0,.223.067,1.275,1.275,0,0,0,1.384-1.161l.759-8.463a1.275,1.275,0,0,0-1.161-1.384c-.089,0-.156.022-.223.022A1.24,1.24,0,0,1,508.15,431.88Z" transform="translate(-472.714 -430.472)"/><path class="d" d="M506.595,440.234l.759-8.463a1.284,1.284,0,0,1,.982-1.117,1.883,1.883,0,0,0-.38-.112,1.275,1.275,0,0,0-1.384,1.161l-.759,8.463a1.275,1.275,0,0,0,1.161,1.384,1.046,1.046,0,0,0,.38-.045A1.247,1.247,0,0,1,506.595,440.234Z" transform="translate(-473.235 -430.475)"/></g><g transform="translate(600.833 789.899)"><path class="b" d="M459.551,424.48l-25.143,18.131-.849,2.411,2.568-.045,25.143-18.131Z" transform="translate(-433.56 -419.92)"/><g transform="translate(0 4.534)"><rect class="d" width="0.759" height="2.947" transform="translate(25.326 0.444) rotate(-35.783)"/><rect class="d" width="0.826" height="31.016" transform="translate(27.28 1.765) rotate(54.212)"/><path class="c" d="M434.342,443.147l-.4-.536,25.143-18.131-.223.982Z" transform="translate(-433.091 -424.454)"/><path class="c" d="M433.56,435.012l.849-2.411.4.536Z" transform="translate(-433.56 -414.442)"/><path class="d" d="M433.56,434.062l2.077-.692.491.648Z" transform="translate(-433.56 -413.493)"/></g><path class="d" d="M458.541,428.968a.17.17,0,0,1-.045-.112l-.781-4.332a.272.272,0,1,1,.536-.089l.782,4.332a.262.262,0,0,1-.223.313A.272.272,0,0,1,458.541,428.968Zm-1.273,1.228a.273.273,0,0,0,.223-.313l-.782-4.332a.272.272,0,1,0-.536.089l.782,4.332a.171.171,0,0,0,.045.112A.256.256,0,0,0,457.268,430.2Zm-1.541,1.117a.273.273,0,0,0,.223-.313l-.782-4.332a.272.272,0,0,0-.536.089l.782,4.332a.171.171,0,0,0,.045.112A.242.242,0,0,0,455.727,431.313Zm-1.541,1.116a.273.273,0,0,0,.223-.313l-.782-4.332a.272.272,0,1,0-.536.089l.782,4.332a.171.171,0,0,0,.045.112A.242.242,0,0,0,454.186,432.429Zm-1.563,1.116a.273.273,0,0,0,.223-.313l-.782-4.332a.272.272,0,1,0-.536.089l.782,4.332a.171.171,0,0,0,.045.112A.256.256,0,0,0,452.623,433.546Zm-1.541,1.116a.273.273,0,0,0,.223-.313l-.781-4.332a.272.272,0,1,0-.536.089l.782,4.332a.171.171,0,0,0,.045.112A.242.242,0,0,0,451.083,434.662Zm-1.541,1.117a.273.273,0,0,0,.223-.313l-.782-4.332a.272.272,0,0,0-.536.089l.782,4.332a.171.171,0,0,0,.045.112A.242.242,0,0,0,449.542,435.779Zm-1.563,1.116a.273.273,0,0,0,.223-.313l-.782-4.332a.272.272,0,1,0-.536.089l.782,4.332a.17.17,0,0,0,.045.112A.256.256,0,0,0,447.979,436.9Zm-1.541,1.116a.273.273,0,0,0,.223-.313l-.782-4.332a.272.272,0,1,0-.536.089l.782,4.332a.171.171,0,0,0,.045.112A.242.242,0,0,0,446.438,438.011Zm-1.541,1.116a.273.273,0,0,0,.223-.313l-.781-4.332a.272.272,0,1,0-.536.089l.781,4.332a.171.171,0,0,0,.045.112A.242.242,0,0,0,444.9,439.128Zm-1.563,1.117a.273.273,0,0,0,.223-.313l-.782-4.332a.272.272,0,0,0-.536.089l.782,4.332a.171.171,0,0,0,.045.112A.256.256,0,0,0,443.334,440.244Zm-1.541,1.116a.273.273,0,0,0,.223-.313l-.782-4.332a.273.273,0,0,0-.313-.223.292.292,0,0,0-.223.313l.782,4.332a.171.171,0,0,0,.045.112A.242.242,0,0,0,441.794,441.361Zm-1.563,1.116a.273.273,0,0,0,.223-.313l-.782-4.332a.272.272,0,1,0-.536.089l.782,4.332a.171.171,0,0,0,.045.112A.272.272,0,0,0,440.231,442.477Zm-1.541,1.117a.273.273,0,0,0,.223-.313l-.782-4.332a.272.272,0,1,0-.536.089l.782,4.332a.171.171,0,0,0,.045.112A.256.256,0,0,0,438.69,443.594Zm-1.541,1.116a.273.273,0,0,0,.223-.313l-.782-4.332a.272.272,0,0,0-.536.089l.782,4.332a.171.171,0,0,0,.045.112A.242.242,0,0,0,437.149,444.71Zm-1.563,1.116a.273.273,0,0,0,.223-.313l-.782-4.332a.272.272,0,1,0-.536.089l.782,4.332a.171.171,0,0,0,.045.112A.326.326,0,0,0,435.586,445.827Z" transform="translate(-432.415 -420.254)"/><path class="b" d="M452.18,430.682l-5.761-7.994a.582.582,0,0,0-.826-.134l-1.094.782a.582.582,0,0,0-.134.826l5.761,7.994a.582.582,0,0,0,.826.134l1.094-.782A.579.579,0,0,0,452.18,430.682Z" transform="translate(-420.383 -422.438)"/><path class="c" d="M446.1,423.348l4.979,6.9a1.251,1.251,0,0,1-.134,1.608.793.793,0,0,0,.2-.089,1.257,1.257,0,0,0,.29-1.764l-4.979-6.9a1.257,1.257,0,0,0-1.764-.29,1.028,1.028,0,0,0-.156.156A1.232,1.232,0,0,1,446.1,423.348Z" transform="translate(-420.022 -422.271)"/><path class="d" d="M450.206,431l-4.979-6.9a1.273,1.273,0,0,1,.022-1.5,2.484,2.484,0,0,0-.357.156,1.257,1.257,0,0,0-.29,1.764l4.979,6.9a1.257,1.257,0,0,0,1.764.29,1.659,1.659,0,0,0,.268-.29A1.238,1.238,0,0,1,450.206,431Z" transform="translate(-420.24 -422.238)"/></g><g transform="translate(467.102 319.066)"><g class="u" transform="matrix(1, 0, 0, 1, -169.21, -200.66)"><rect class="k" width="458.378" height="215.144" transform="translate(169.21 377.13)"/></g><rect class="l" width="54.06" height="215.144" transform="translate(0 176.469)"/><rect class="l" width="54.06" height="215.144" transform="translate(403.917 176.469)"/><rect class="m" width="458.378" height="11.12" transform="translate(0 176.469)"/><path class="k" d="M409.71,603.2H373.67V217.909a6.328,6.328,0,0,1,6.319-6.319h23.379a6.328,6.328,0,0,1,6.319,6.319V603.2Z" transform="translate(-373.67 -211.568)"/><g class="t" transform="matrix(1, 0, 0, 1, -169.21, -200.66)"><path class="m" d="M381.865,212.9a18,18,0,0,0-8.195,15.072V601.566h10.607V227.972C384.277,221.653,383.316,216.115,381.865,212.9Z" transform="translate(-204.46 -9.29)"/></g><path class="m" d="M409.71,388.049H373.67V217.9a6.328,6.328,0,0,1,6.319-6.319h23.379a6.328,6.328,0,0,1,6.319,6.319v170.15Z" transform="translate(-373.67 -211.58)"/><path class="k" d="M598.86,603.2H562.82V217.909a6.328,6.328,0,0,1,6.319-6.319h23.379a6.328,6.328,0,0,1,6.319,6.319V603.2Z" transform="translate(-140.459 -211.568)"/><g transform="translate(119.507 252.814)"><path class="l" d="M437.8,379.328a30.963,30.963,0,0,1-7.994-20.655,31.3,31.3,0,0,1,31.261-31.261H617.928a31.064,31.064,0,0,1,20.677,7.994,31.093,31.093,0,0,0-23.29-10.607H458.451A31.125,31.125,0,0,0,437.8,379.328Z" transform="translate(-427.19 -324.8)"/><path class="l" d="M639.809,327.5a37.557,37.557,0,0,1-27.845,62.835H455.1a37.415,37.415,0,0,1-25.21-9.78,37.471,37.471,0,0,0,27.845,12.393H614.6a37.55,37.55,0,0,0,25.21-65.448Z" transform="translate(-423.861 -321.471)"/></g><g transform="translate(109.816 243.078)"><path class="m" d="M454.234,383.083H611.1a31.117,31.117,0,0,0,20.253-54.863,30.951,30.951,0,0,1,7.659,20.253,31.3,31.3,0,0,1-31.261,31.261H450.885a31.01,31.01,0,0,1-20.275-7.659A31.073,31.073,0,0,0,454.234,383.083Z" transform="translate(-413.282 -310.848)"/><path class="m" d="M426.177,361.414A37.671,37.671,0,0,1,463.8,323.789H620.666a37.5,37.5,0,0,1,24.853,9.445,37.54,37.54,0,0,0-28.18-12.795H460.475a37.564,37.564,0,0,0-24.83,65.8A37.351,37.351,0,0,1,426.177,361.414Z" transform="translate(-422.85 -320.44)"/></g><rect class="k" width="36.04" height="8.753" transform="translate(0 167.739)"/><g class="s" transform="matrix(1, 0, 0, 1, -169.21, -200.66)"><path class="m" d="M576.622,212.9a18,18,0,0,1,8.195,15.072V601.566H574.21V227.972C574.21,221.653,575.17,216.115,576.622,212.9Z" transform="translate(42.8 -9.29)"/></g><path class="m" d="M562.82,388.049h36.04V217.9a6.328,6.328,0,0,0-6.319-6.319H569.162a6.328,6.328,0,0,0-6.319,6.319v170.15Z" transform="translate(-140.459 -211.58)"/><rect class="k" width="36.04" height="8.753" transform="translate(458.384 176.473) rotate(180)"/><path class="l" d="M524.072,290.647c-1.965,2.411-3.952,4.823-5.962,7.279-3.885,4.756-7.838,9.669-11.544,15.139-.938,1.34-1.831,2.814-2.724,4.243-.849,1.474-1.786,3.081-2.5,4.488-1.5,2.88-2.88,5.739-4.2,8.6a350.765,350.765,0,0,0-13.755,34.923,293.362,293.362,0,0,0-9.87,36.553c-.022.156-.067.335-.089.491a11.29,11.29,0,0,0,22.329,3.349v-.067a267.624,267.624,0,0,1,7.614-34.142,333.2,333.2,0,0,1,11.477-33.427c1.094-2.7,2.255-5.381,3.439-7.949.6-1.317,1.161-2.345,1.764-3.55.692-1.161,1.3-2.345,2.054-3.506,2.9-4.711,6.364-9.445,9.981-14.246,4.377-5.873,9-11.835,13.353-18.243H524.072Z" transform="translate(-250.827 -114.178)"/><path class="k" d="M593.1,211.59h-24.54a5.737,5.737,0,0,0-5.739,5.739V357.982c5.94,4.421,12.214,9.289,19,14.827L598.86,386.7V217.329A5.756,5.756,0,0,0,593.1,211.59Z" transform="translate(-140.459 -211.568)"/></g><g transform="translate(686.699 211.104)"><path class="h" d="M603.708,277.777l-20.744,8.53a5.038,5.038,0,0,0-2.746,6.565L613.8,374.486a5.038,5.038,0,0,0,6.565,2.747l20.744-8.53a5.038,5.038,0,0,0,2.746-6.565l-33.583-81.614A5.038,5.038,0,0,0,603.708,277.777Zm36.352,85.991-22.4,9.222-2.211-5.381,22.4-9.222Zm-3.93-9.557-22.4,9.222-2.211-5.381,22.4-9.222Zm-3.93-9.535L609.8,353.9l-2.211-5.381,22.4-9.222Zm-3.93-9.557-22.4,9.222-2.211-5.381,22.4-9.222Zm-3.93-9.557-22.4,9.222-2.211-5.381,22.4-9.222Zm-3.93-9.535-22.4,9.222-2.211-5.381,22.4-9.222Zm-3.93-9.557-22.4,9.222-2.211-5.381,22.4-9.222Zm-3.93-9.535-22.4,9.222-2.211-5.381,22.4-9.222Zm-3.908-9.557L586.224,296.6l-2.211-5.381L606.41,282Z" transform="translate(-339.068 -22.464)"/><g transform="translate(240.821 264.647)"><g class="r" transform="matrix(1, 0, 0, 1, -629.63, -357.35)"><path class="j" d="M642.892,359.01l-20.744,8.53a4.931,4.931,0,0,1-4.019-.134l-.491.2-.29-.737a4.8,4.8,0,0,1-1.742-2.077l-33.583-81.614a4.613,4.613,0,0,1-.268-1.429,4.93,4.93,0,0,0-1.518,5.739L613.819,369.1a5.038,5.038,0,0,0,6.565,2.747l20.744-8.53a4.962,4.962,0,0,0,3.014-5.113A7.446,7.446,0,0,1,642.892,359.01Z" transform="translate(49.77 75.6)"/></g></g><path class="h" d="M602.608,321.306,569.024,293.93a2.607,2.607,0,0,1-.38-3.64l12.482-15.3a2.607,2.607,0,0,1,3.64-.38l33.583,27.376a2.607,2.607,0,0,1,.38,3.64l-12.482,15.3A2.569,2.569,0,0,1,602.608,321.306Z" transform="translate(-353.577 -26.603)"/><path class="j" d="M577.793,275.518,570,285.075l37.58,30.636,7.793-9.557a4.055,4.055,0,0,0,.692-1.3L578.932,274.58A4.475,4.475,0,0,0,577.793,275.518Z" transform="translate(-351.203 -25.943)"/><path class="e" d="M572.24,178.815l25.612-12.5a29.662,29.662,0,0,1,28.046.916c87.621,51.536,148.535,144.65,79.024,239.148Z" transform="translate(-348.441 -163.23)"/><g class="q" transform="matrix(1, 0, 0, 1, -388.81, -92.7)"><path class="g" d="M598.745,174.98a29.662,29.662,0,0,1,28.046.915c55.511,32.646,100.259,82.016,107.94,137.84-4-59.374-50.442-112.183-108.833-146.5a29.724,29.724,0,0,0-28.046-.915l-25.612,12.5,4.131,7.078Z" transform="translate(40.37 -70.51)"/></g><path class="e" d="M798.276,475.93a194.4,194.4,0,0,1,21.034-57.476,58.435,58.435,0,0,1,5.739-8.24l.268-.335c45.463-55.757,26.706-146.3-41.912-202.26-60.267-49.147-138.911-55.243-187.969-18.243-2.523,1.9-5.046,3.774-7.659,5.515-29.252,19.36-58.057,41.667-104.7,31.35-8.262-1.831-14.358,7.614-9.088,14.224,10.852,13.554,30.993,34.5,68.462,65.046,78.845,64.309,100.527,62.1,162.647,112.763l77.55,63.237A9.7,9.7,0,0,0,798.276,475.93Z" transform="translate(-472.008 -160.372)"/><path class="f" d="M546.225,264.457c78.845,64.309,100.527,62.1,162.647,112.764l77.55,63.237a9.578,9.578,0,0,0,5.314,2.144,199.315,199.315,0,0,1,8.284-26.862c-22.731-18.533-61.272-49.973-126.161-102.894C577.687,234.4,555,200.662,550.289,187.13c-19.962,11.254-42.27,18.824-71.789,13.2C489.508,213.9,509.56,234.558,546.225,264.457Z" transform="translate(-464.017 -133.764)"/><path class="e" d="M798.271,445.882c.849-4.265,1.987-9.244,3.483-14.648-21.816-17.774-61.227-49.929-131.677-107.382C529.112,208.9,546.015,189.92,546.015,189.92h0c-17.707,7.9-37.759,11.9-63.036,6.275-8.217-1.831-14.246,7.681-8.976,14.246,10.852,13.554,30.993,34.477,68.462,65.023,78.845,64.309,100.527,62.1,162.647,112.763l77.55,63.237A9.687,9.687,0,0,0,798.271,445.882Z" transform="translate(-472.002 -130.324)"/><g transform="translate(264.691 32.265)"><g class="p" transform="matrix(1, 0, 0, 1, -653.5, -124.97)"><path class="f" d="M652.13,460.973A194.4,194.4,0,0,1,673.165,403.5a58.435,58.435,0,0,1,5.739-8.24l.268-.335c45.463-55.757,26.706-146.3-41.912-202.26A198.412,198.412,0,0,0,616.18,177.68c63.527,56.225,79.805,142.975,35.727,197.012l-.268.335a59.749,59.749,0,0,0-5.739,8.24c-12.326,21.727-45.53,36.241-54.841,39.925-4.935,1.965,27.957,25.768,23.223,25.232L636.5,466.556A9.7,9.7,0,0,0,652.13,460.973Z" transform="translate(62.95 -52.71)"/></g></g><g class="o" transform="matrix(1, 0, 0, 1, -388.81, -92.7)"><path class="g" d="M483.795,233.421c46.624,10.316,75.451-11.991,104.7-31.35,2.635-1.742,5.158-3.617,7.659-5.515,49.058-37,127.7-30.9,187.969,18.243,37.826,30.859,60.468,72.213,65.582,112.473C846.514,284.8,823.47,240.32,783.389,207.63c-60.267-49.147-138.911-55.243-187.969-18.243-2.523,1.9-5.047,3.774-7.659,5.515-29.252,19.36-58.057,41.667-104.7,31.35-7.815-1.719-13.688,6.61-9.825,13.107A8.974,8.974,0,0,1,483.795,233.421Z" transform="translate(-83.21 -67.66)"/></g><g class="n" transform="matrix(1, 0, 0, 1, -388.81, -92.7)"><path class="f" d="M798.631,440.693a9.617,9.617,0,0,1-8.441-1.9l-77.55-63.237c-62.12-50.665-83.8-48.455-162.647-112.764-37.446-30.547-57.61-51.469-68.462-65.023a8.581,8.581,0,0,1-1.943-5.091,8.939,8.939,0,0,0-5.6,14.358c10.852,13.554,30.993,34.477,68.462,65.023,78.845,64.309,100.527,62.1,162.647,112.764l77.55,63.237a9.686,9.686,0,0,0,15.631-5.582C798.386,441.9,798.5,441.3,798.631,440.693Z" transform="translate(-83.2 -34.22)"/></g><path class="e" d="M557.125,267.17l-26.483-21.593a5.568,5.568,0,0,1-.4-8.24L549.176,218.6a5.54,5.54,0,0,1,7.391-.357l22.084,18.02a5.556,5.556,0,0,1,1.139,7.324L565.253,265.9A5.517,5.517,0,0,1,557.125,267.17Z" transform="translate(-402.235 -96.932)"/><path class="f" d="M579.809,233.139a5.56,5.56,0,0,0-1.139-7.324l-.4-.335L564.4,246.76a5.542,5.542,0,0,1-8.15,1.273l-25.969-21.168-.022.022a5.535,5.535,0,0,0,.4,8.24l26.483,21.593a5.547,5.547,0,0,0,8.15-1.273Z" transform="translate(-402.232 -86.48)"/><path class="g" d="M530.688,241.68l18.935-18.734a5.539,5.539,0,0,1,7.391-.357l22.084,18.02a5.34,5.34,0,0,1,1.34,1.585,5.52,5.52,0,0,0-1.764-5.917l-22.084-18.02a5.54,5.54,0,0,0-7.391.357l-18.935,18.734a5.537,5.537,0,0,0-.938,6.632A5.182,5.182,0,0,1,530.688,241.68Z" transform="translate(-402.214 -96.919)"/><path class="e" d="M624.165,321.84l-26.483-21.593a5.568,5.568,0,0,1-.4-8.24l18.935-18.734a5.539,5.539,0,0,1,7.391-.357l22.084,18.02a5.556,5.556,0,0,1,1.139,7.324l-14.536,22.307A5.52,5.52,0,0,1,624.165,321.84Z" transform="translate(-319.579 -29.527)"/><path class="e" d="M577.026,178.166l-1.965,8.753a13.2,13.2,0,0,0,7.972,15.206c37.156,14.6,94.945,53.278,118.859,117.765a2.408,2.408,0,0,0,4.667-1.027c-4.466-40.774-33.449-106.2-121.762-144.672A5.66,5.66,0,0,0,577.026,178.166Z" transform="translate(-345.367 -150.3)"/><path class="f" d="M706.447,318.1c-22.553-64.912-79.426-104.77-116.225-120.177a13.2,13.2,0,0,1-7.637-15.363l2.077-8.418a5.652,5.652,0,0,0-7.637,4.042l-1.965,8.753a13.2,13.2,0,0,0,7.972,15.206c37.156,14.6,94.945,53.278,118.859,117.765a2.408,2.408,0,0,0,4.667-1.027C706.514,318.59,706.47,318.344,706.447,318.1Z" transform="translate(-345.367 -150.294)"/><path class="f" d="M615.77,311.166c-10.986-9.713-26.3-18.98-36.933-29.051-10.651-10.048-21.168-20.208-31.284-30.725-10.138-10.495-19.963-21.258-29.3-32.355-6.721-8.039-13.174-16.278-19.181-24.741a98.156,98.156,0,0,1-17.864-.8,2.883,2.883,0,0,0,.558,2.144,375.624,375.624,0,0,0,27.354,31.6c10.294,10.718,21.012,20.945,31.953,30.859,10.919,9.937,22.173,19.471,33.561,28.827C585.983,296.295,615.77,311.166,615.77,311.166Z" transform="translate(-460.701 -125.922)"/><path class="f" d="M646.839,287.809a5.56,5.56,0,0,0-1.139-7.324l-.4-.335-13.867,21.28a5.542,5.542,0,0,1-8.15,1.273l-25.969-21.168-.022.022a5.535,5.535,0,0,0,.4,8.24l26.483,21.593a5.547,5.547,0,0,0,8.15-1.273Z" transform="translate(-319.588 -19.075)"/><path class="g" d="M597.718,296.34l18.935-18.734a5.54,5.54,0,0,1,7.391-.357l22.084,18.02a5.339,5.339,0,0,1,1.34,1.585,5.52,5.52,0,0,0-1.764-5.917l-22.084-18.02a5.539,5.539,0,0,0-7.391.357l-18.935,18.734a5.537,5.537,0,0,0-.938,6.632A5.307,5.307,0,0,1,597.718,296.34Z" transform="translate(-319.569 -29.527)"/><path class="e" d="M488.212,191.886a7.286,7.286,0,0,1,10.182,1.831c6.7,9.78,14.112,19.248,21.816,28.47,9.334,11.1,19.181,21.86,29.3,32.355,10.115,10.517,20.632,20.7,31.284,30.725,10.629,10.071,21.593,19.784,32.6,29.5,0,0-25.456-15.318-36.8-24.7-11.366-9.356-22.62-18.891-33.561-28.827-10.941-9.914-21.637-20.163-31.953-30.859a372.135,372.135,0,0,1-27.354-31.6,2.988,2.988,0,0,1,.692-4.265Z" transform="translate(-458.322 -129.521)"/><path class="g" d="M486.219,194.267A7.286,7.286,0,0,1,496.4,196.1c6.7,9.78,14.112,19.248,21.816,28.47,9.334,11.1,19.181,21.86,29.3,32.355,10.115,10.517,20.632,20.7,31.284,30.725,6.185,5.85,12.482,11.589,18.824,17.261,8.463,5.493,15.72,9.847,15.72,9.847-10.986-9.713-21.95-19.427-32.6-29.5-10.651-10.048-21.168-20.208-31.284-30.725-10.138-10.495-19.963-21.258-29.3-32.355-7.7-9.222-15.117-18.69-21.816-28.47a7.33,7.33,0,0,0-10.182-1.831l-3.8,2.613a2.892,2.892,0,0,0-1.206,1.876Z" transform="translate(-458.272 -129.513)"/><path class="g" d="M581.381,176.566c88.29,38.474,117.274,103.9,121.762,144.672,0,.067-.022.112-.022.179a2.281,2.281,0,0,0,1.965-2.568c-4.466-40.773-33.449-106.2-121.762-144.672a5.637,5.637,0,0,0-7.413,2.992A5.554,5.554,0,0,1,581.381,176.566Z" transform="translate(-343.916 -150.308)"/><ellipse class="g" cx="30.1" cy="15.139" rx="30.1" ry="15.139" transform="matrix(0.964, -0.266, 0.266, 0.964, 146.34, 32.915)"/></g><g transform="translate(682.658 409.853)"><g transform="translate(0 53.878)"><path class="e" d="M550.223,288.233c-6.208,11.745-14.045,21.593-21.235,31.239-3.6,4.8-7.056,9.535-9.981,14.246-.759,1.183-1.362,2.345-2.054,3.506-.6,1.206-1.161,2.233-1.764,3.55-1.183,2.568-2.344,5.247-3.439,7.949a336.963,336.963,0,0,0-11.477,33.427,273.694,273.694,0,0,0-7.614,34.142v.067a11.29,11.29,0,0,1-22.329-3.349c.022-.156.067-.357.089-.491a288.5,288.5,0,0,1,9.87-36.553,355.138,355.138,0,0,1,13.755-34.923c1.318-2.858,2.7-5.716,4.2-8.6.715-1.407,1.652-3.037,2.5-4.488.893-1.429,1.786-2.9,2.724-4.243,3.707-5.471,7.659-10.383,11.544-15.139,7.748-9.468,15.407-18.466,20.967-28.046l.067-.112a8.127,8.127,0,0,1,11.075-2.947A8.04,8.04,0,0,1,550.223,288.233Z" transform="translate(-470.204 -276.346)"/><path class="g" d="M474.6,413.722c.022-.156.067-.357.089-.491a288.5,288.5,0,0,1,9.87-36.553,352.924,352.924,0,0,1,13.755-34.923c1.318-2.858,2.7-5.716,4.2-8.6.715-1.407,1.652-3.037,2.5-4.488.893-1.429,1.786-2.9,2.724-4.243,3.707-5.471,7.659-10.383,11.544-15.139,7.748-9.468,15.407-18.466,20.967-28.046l.067-.112a8.087,8.087,0,0,1,6.163-3.975,8.07,8.07,0,0,0-10.428,3.238l-.067.112c-5.56,9.579-13.219,18.578-20.967,28.046-3.885,4.756-7.838,9.669-11.544,15.139-.938,1.34-1.831,2.813-2.724,4.243-.849,1.474-1.786,3.081-2.5,4.488-1.5,2.881-2.881,5.739-4.2,8.6A350.77,350.77,0,0,0,480.3,375.941a293.341,293.341,0,0,0-9.87,36.553c-.022.156-.067.335-.089.491a11.307,11.307,0,0,0,9.49,12.839,11.068,11.068,0,0,0,1.92.089A11.251,11.251,0,0,1,474.6,413.722Z" transform="translate(-470.192 -276.344)"/><path class="f" d="M546.913,277a5.706,5.706,0,0,0-.536-.246,8,8,0,0,1-.871,4.667c-6.208,11.745-14.045,21.593-21.235,31.239-3.595,4.8-7.056,9.535-9.981,14.246-.759,1.183-1.362,2.345-2.054,3.506-.6,1.206-1.161,2.233-1.764,3.55-1.183,2.568-2.345,5.247-3.439,7.949a336.962,336.962,0,0,0-11.477,33.427,273.694,273.694,0,0,0-7.614,34.142v.067a11.224,11.224,0,0,1-17.551,7.592,11.277,11.277,0,0,0,22.062-1.206v-.067a267.625,267.625,0,0,1,7.614-34.142,333.2,333.2,0,0,1,11.477-33.427c1.094-2.7,2.255-5.381,3.439-7.949.6-1.317,1.161-2.345,1.764-3.55.692-1.161,1.3-2.345,2.054-3.506,2.9-4.711,6.364-9.445,9.981-14.246,7.19-9.646,15.05-19.494,21.235-31.239A8.135,8.135,0,0,0,546.913,277Z" transform="translate(-469.975 -275.894)"/><path class="b" d="M519.961,277.468a8.083,8.083,0,0,0-11.075,2.948l-.067.112c-4.488,7.748-10.383,15.139-16.568,22.687l19.27,3.282a154.706,154.706,0,0,0,11.567-18.243A8.143,8.143,0,0,0,519.961,277.468Z" transform="translate(-443.023 -276.367)"/><path class="c" d="M513.083,281.232l.067-.112a8.087,8.087,0,0,1,6.163-3.975,8.07,8.07,0,0,0-10.428,3.238l-.067.112c-4.488,7.748-10.383,15.139-16.568,22.687l4.265.737C502.678,296.371,508.573,288.98,513.083,281.232Z" transform="translate(-443.023 -276.357)"/><g transform="translate(60.324 0.029)"><path class="d" d="M501.436,276.89a8.32,8.32,0,0,0-.826.514C500.878,277.225,501.168,277.069,501.436,276.89Z" transform="translate(-493.04 -275.751)"/><path class="d" d="M501.79,276.678a7,7,0,0,1,1.362-.268A7.342,7.342,0,0,0,501.79,276.678Z" transform="translate(-491.585 -276.342)"/><path class="d" d="M506.851,277.207a8.124,8.124,0,0,0-4.421-.782A8.089,8.089,0,0,1,506.851,277.207Z" transform="translate(-490.796 -276.38)"/><path class="d" d="M513.833,277a5.706,5.706,0,0,0-.536-.246,8,8,0,0,1-.871,4.667,178.106,178.106,0,0,1-15.206,23.223l8.173,1.384a154.706,154.706,0,0,0,11.567-18.243A8.143,8.143,0,0,0,513.833,277Z" transform="translate(-497.22 -275.923)"/><path class="d" d="M501.18,277.017a9.694,9.694,0,0,1,1.116-.447A9.7,9.7,0,0,0,501.18,277.017Z" transform="translate(-492.338 -276.145)"/><path class="d" d="M500.11,277.849c.156-.179.335-.313.491-.469C500.445,277.536,500.266,277.693,500.11,277.849Z" transform="translate(-493.657 -275.146)"/></g><path class="d" d="M513.623,277.468a8.083,8.083,0,0,0-11.075,2.948l-.067.112c-1.541,2.657-3.282,5.247-5.091,7.838a20.388,20.388,0,0,0,9.914,15.117,140.745,140.745,0,0,0,9.423-15.206A8.135,8.135,0,0,0,513.623,277.468Z" transform="translate(-436.686 -276.367)"/><path class="h" d="M473.254,331.74c-1.027,4.131-1.987,8.284-2.836,12.5-.022.156-.067.335-.089.491a11.29,11.29,0,0,0,22.329,3.349v-.067c.625-4.2,1.429-8.4,2.3-12.594Z" transform="translate(-470.204 -208.094)"/><g transform="translate(0.018 126.37)"><path class="j" d="M470.341,337.56a11.644,11.644,0,0,0-.112,2.322A11.653,11.653,0,0,1,470.341,337.56Z" transform="translate(-470.212 -327.289)"/><path class="j" d="M494.949,333.92l-5.582-.96c-.447,2.389-.871,4.8-1.228,7.19v.067a11.224,11.224,0,0,1-17.551,7.592,12.086,12.086,0,0,1-.357-2.188,11.282,11.282,0,0,0,22.419.982v-.067C493.274,342.338,494.078,338.14,494.949,333.92Z" transform="translate(-470.191 -332.96)"/></g><path class="i" d="M474.514,345.45c.022-.156.067-.357.089-.491.826-4.22,1.809-8.374,2.836-12.5l-4.176-.715c-1.027,4.131-1.987,8.284-2.836,12.5-.022.156-.067.335-.089.491a11.308,11.308,0,0,0,9.49,12.839,12.719,12.719,0,0,0,1.831.089A11.248,11.248,0,0,1,474.514,345.45Z" transform="translate(-470.192 -208.094)"/></g><g transform="translate(57.248)"><g transform="translate(0.022)"><path class="b" d="M511.523,292.391c-.045-1-.067-1.987-.089-2.992a2.257,2.257,0,0,1,2.054-2.367h.045a2.276,2.276,0,0,0,2.077-2.367c.022-1.25.045-2.5.089-3.729a2.488,2.488,0,0,0-1.987-2.59h0a2.4,2.4,0,0,1-1.965-2.59c.179-2.434.4-4.868.692-7.279a2.7,2.7,0,0,1,2.568-2.322h0a2.946,2.946,0,0,0,2.68-2.322c.581-3.059,1.3-6.118,2.144-9.155.447-1.563-1.049-2.747-2.925-2.367-3.014.648-5.94,1.3-8.8,1.943a2.588,2.588,0,0,0-1.965,1.719c-5.069,16.68-6.944,33.65-10.249,50.42a2.46,2.46,0,0,0,1.764,2.747c6.833,2.166,14.045,4.354,21.749,6.542a120.957,120.957,0,0,1-3.215-18.087,2.993,2.993,0,0,0-2.367-2.613h-.045A2.762,2.762,0,0,1,511.523,292.391Z" transform="translate(-495.852 -252.238)"/></g><g transform="translate(3.992 45.772)"><path class="d" d="M497.63,284.579c6.185,1.943,12.705,3.908,19.583,5.85a123.685,123.685,0,0,1-3.171-17.663C506.2,272.3,499.818,277.344,497.63,284.579Z" transform="translate(-497.63 -272.737)"/></g><g transform="translate(14.375 0.014)"><path class="c" d="M507.081,266.146h0a2.946,2.946,0,0,0,2.68-2.322c.581-3.059,1.3-6.118,2.144-9.155.447-1.541-1-2.7-2.836-2.367a1.839,1.839,0,0,1,1.362,2.278c-.782,3.037-1.451,6.1-2.01,9.155a2.9,2.9,0,0,1-2.657,2.322,2.7,2.7,0,0,0-2.546,2.345c-.268,2.412-.491,4.846-.648,7.279a2.429,2.429,0,0,0,1.987,2.59,2.419,2.419,0,0,1,1.987,2.59c-.045,1.25-.089,2.479-.089,3.729a2.292,2.292,0,0,1-2.077,2.367h-.045a2.236,2.236,0,0,0-2.054,2.345c.022,1,.045,1.987.089,2.992a2.807,2.807,0,0,0,2.255,2.613h.045a2.945,2.945,0,0,1,2.345,2.613,130.636,130.636,0,0,0,2.9,17.707l1.608.469a120.973,120.973,0,0,1-3.215-18.087A2.993,2.993,0,0,0,505.942,295H505.9a2.787,2.787,0,0,1-2.255-2.613c-.045-1-.067-1.987-.089-2.992a2.257,2.257,0,0,1,2.054-2.367h.045a2.276,2.276,0,0,0,2.077-2.367c.022-1.25.045-2.5.089-3.729a2.488,2.488,0,0,0-1.987-2.59h0a2.4,2.4,0,0,1-1.965-2.59c.179-2.434.4-4.868.692-7.279A2.621,2.621,0,0,1,507.081,266.146Z" transform="translate(-502.28 -252.244)"/></g><g transform="translate(0 1.255)"><path class="c" d="M499.7,309.115c3.037-18.734,4.845-37.826,11.9-56.315-1.183.268-2.344.536-3.506.782a2.589,2.589,0,0,0-1.965,1.719c-5.069,16.68-6.944,33.65-10.249,50.42a2.459,2.459,0,0,0,1.764,2.747C498.338,308.69,499.008,308.892,499.7,309.115Z" transform="translate(-495.842 -252.8)"/></g></g><g transform="translate(80.823 4.013)"><g transform="translate(0.022)"><path class="b" d="M521.549,294.1c.38-.938.737-1.853,1.072-2.791a2.23,2.23,0,0,0-1.161-2.9c-.022,0-.022-.022-.045-.022a2.3,2.3,0,0,1-1.183-2.925q.6-1.775,1.139-3.55a2.458,2.458,0,0,1,2.746-1.786h0a2.434,2.434,0,0,0,2.724-1.786c.648-2.345,1.228-4.711,1.764-7.1a2.717,2.717,0,0,0-1.652-3.059h0a2.913,2.913,0,0,1-1.764-3.081c.469-3.081.8-6.208,1.027-9.334.089-1.608,1.9-2.255,3.55-1.25,2.635,1.608,5.18,3.193,7.659,4.756a2.65,2.65,0,0,1,1.3,2.278c-.737,17.417-4.6,34.052-7.034,50.978a2.462,2.462,0,0,1-2.59,2.01c-7.168-.223-14.693-.558-22.687-1.049a120.683,120.683,0,0,0,9.021-16.01,2.97,2.97,0,0,1,3.1-1.675h.045A2.755,2.755,0,0,0,521.549,294.1Z" transform="translate(-506.41 -254.035)"/></g><g transform="translate(0 43.821)"><path class="d" d="M526.809,290.251c-6.5-.223-13.264-.536-20.409-.982a124.245,124.245,0,0,0,8.842-15.608C522.79,275.826,527.166,282.7,526.809,290.251Z" transform="translate(-506.4 -273.66)"/></g><g transform="translate(0.023 0.023)"><path class="c" d="M526.975,268.19h0a2.913,2.913,0,0,1-1.764-3.081c.469-3.081.8-6.208,1.027-9.334.089-1.585,1.831-2.233,3.461-1.3a1.85,1.85,0,0,0-2.032,1.7q-.4,4.689-1.139,9.311a2.9,2.9,0,0,0,1.742,3.081,2.688,2.688,0,0,1,1.63,3.037c-.558,2.367-1.161,4.734-1.809,7.078a2.441,2.441,0,0,1-2.724,1.786,2.471,2.471,0,0,0-2.746,1.786c-.357,1.183-.759,2.367-1.139,3.55a2.306,2.306,0,0,0,1.183,2.925c.022,0,.022.022.045.022a2.231,2.231,0,0,1,1.161,2.9c-.357.938-.715,1.876-1.072,2.791a2.811,2.811,0,0,1-2.992,1.719h-.045a2.971,2.971,0,0,0-3.081,1.675,131.538,131.538,0,0,1-8.6,15.742c-.558-.022-1.116-.067-1.675-.112a120.683,120.683,0,0,0,9.021-16.01,2.97,2.97,0,0,1,3.1-1.675h.045a2.794,2.794,0,0,0,2.992-1.7c.38-.938.737-1.853,1.072-2.791a2.23,2.23,0,0,0-1.161-2.9c-.022,0-.022-.022-.045-.022a2.306,2.306,0,0,1-1.184-2.925q.6-1.775,1.139-3.55a2.458,2.458,0,0,1,2.746-1.786h0a2.434,2.434,0,0,0,2.724-1.786c.648-2.345,1.228-4.711,1.764-7.1A2.728,2.728,0,0,0,526.975,268.19Z" transform="translate(-506.41 -254.045)"/></g><g transform="translate(20.565 3.338)"><path class="c" d="M515.61,312.626c3.349-18.69,7.949-37.29,7.436-57.1,1.027.648,2.032,1.273,3.037,1.9a2.65,2.65,0,0,1,1.3,2.278c-.737,17.417-4.6,34.052-7.034,50.978a2.462,2.462,0,0,1-2.59,2.01Z" transform="translate(-515.61 -255.53)"/></g></g><path class="b" d="M533.155,293.191a17.4,17.4,0,1,1-14.224-20.074A17.4,17.4,0,0,1,533.155,293.191Z" transform="translate(-435.183 -226.801)"/><path class="d" d="M527.74,275.44a17.227,17.227,0,0,1,1.876,11.232A17.389,17.389,0,0,1,499.56,295.4a17.389,17.389,0,1,0,28.18-19.963Z" transform="translate(-434.01 -223.631)"/><path class="c" d="M500.377,289.485a17.378,17.378,0,0,1,30.524-8.173,17.382,17.382,0,1,0-28.291,20.029A17.294,17.294,0,0,1,500.377,289.485Z" transform="translate(-435.185 -226.801)"/><path class="d" d="M512.454,278.509a6.815,6.815,0,1,0,4.734,8.4A6.81,6.81,0,0,0,512.454,278.509Z" transform="translate(-428.773 -220.157)"/><path class="c" d="M516.885,285.563a6.817,6.817,0,1,1-5.582-7.86A6.824,6.824,0,0,1,516.885,285.563Z" transform="translate(-429.341 -220.959)"/></g><g transform="translate(799.989 679.421)"><g transform="translate(0 75.002)"><path class="b" d="M527.372,418.943l-4.622-.447,1.161-11.946,67.055,6.543-.447,4.622-62.433-6.1Z" transform="translate(-522.75 -406.55)"/></g><path class="d" d="M588.867,411.363l-.246,2.523-62.433-6.1-.714,7.324-2.523-.246-.2,2.1,4.622.447.715-7.324,62.433,6.1.447-4.622Z" transform="translate(-522.75 -330.019)"/><path class="e" d="M604,373.182a46.472,46.472,0,0,0-50.755,41.734l-3.841,39.5a6.769,6.769,0,0,0,6.1,7.391l66.229,6.453a19.6,19.6,0,0,0,21.414-17.618l2.612-26.728A46.512,46.512,0,0,0,604,373.182Z" transform="translate(-489.922 -372.961)"/><path class="f" d="M631.537,378.72a46.3,46.3,0,0,1,7.078,29.453L636,434.9a19.6,19.6,0,0,1-21.414,17.618l-65.09-6.342-.112,1.161a6.769,6.769,0,0,0,6.1,7.391l66.229,6.453a19.6,19.6,0,0,0,21.414-17.618l2.613-26.728A46.3,46.3,0,0,0,631.537,378.72Z" transform="translate(-489.947 -365.861)"/><circle class="f" cx="26.125" cy="26.125" r="26.125" transform="translate(77.552 63.903) rotate(-70.269)"/><circle class="g" cx="26.125" cy="26.125" r="26.125" transform="translate(72.162 37.705) rotate(-33.531)"/><circle class="h" cx="26.125" cy="26.125" r="26.125" transform="translate(72.792 43.419) rotate(-40.344)"/><path class="i" d="M591.637,401.61a13.2,13.2,0,1,1-11.857-14.425A13.2,13.2,0,0,1,591.637,401.61Z" transform="translate(-470.299 -355.503)"/><path class="e" d="M591.588,402.07a12.777,12.777,0,1,1-11.477-13.956A12.763,12.763,0,0,1,591.588,402.07Z" transform="translate(-469.312 -354.355)"/><path class="g" d="M586.755,389.83a12.626,12.626,0,0,1,2.3,8.552,12.723,12.723,0,0,1-21.905,7.57,12.733,12.733,0,1,0,19.605-16.122Z" transform="translate(-468.007 -352.163)"/><path class="f" d="M568.173,402.048a12.722,12.722,0,0,1,21.459-8.016,12.733,12.733,0,1,0-19.494,16.055A12.6,12.6,0,0,1,568.173,402.048Z" transform="translate(-469.299 -354.355)"/><path class="g" d="M553.182,459.016l3.841-39.5a46.426,46.426,0,0,1,80.14-27.22,46.426,46.426,0,0,0-83.914,22.62l-3.841,39.5a6.748,6.748,0,0,0,3.952,6.81A6.023,6.023,0,0,1,553.182,459.016Z" transform="translate(-489.922 -372.961)"/></g></g></svg>